<svg xmlns="http://www.w3.org/2000/svg" viewBox="0 0 1351.03 1024"><defs><style>.cls-1,.cls-2{fill:none;stroke-miterlimit:10;}.cls-1{stroke:red;stroke-width:19px;}.cls-2{stroke:#534741;stroke-width:22px;}</style></defs><title>menos fuerte que una montaña</title><g id="Capa_3" data-name="Capa 3"><path d="M963,161.42,722.17,772.47,601.81,470.58l-271,714.84H1354.37Zm-.86,165.83L1079.4,634.1,1022.56,691l-60-60-60,60-60.08-60.08Zm-358.9,308.9,49.63,124.48L602.52,811,555,763.42ZM417.76,1125.41,531.65,825l70.87,70.87L677,821.3l121.24,304.11ZM754.6,853.83l63.88-162.09,84.07,84.07,60-60,60,60,80.31-80.32,164.32,429.93H862.88Z" transform="translate(-3.34 -161.42)"/></g><g id="Capa_5" data-name="Capa 5"><path class="cls-1" d="M625.62,792.38l-154.15-41L549.6,614a9.08,9.08,0,0,0-11.67-12.74L393,667.78l-29.59-155a9.07,9.07,0,0,0-17.11-2.18l-67.73,142.9L154.9,553.5a9.08,9.08,0,0,0-14.47,9.42l41.1,152.27L21.81,717.06a9.07,9.07,0,0,0-5.06,16.53l130.59,90.55-121,102.7a9.07,9.07,0,0,0,6.64,16l159.17-13.53-25.86,155.52a9.08,9.08,0,0,0,15.32,8L294.78,981.3,376.31,1117a9.08,9.08,0,0,0,7.78,4.4,9.43,9.43,0,0,0,2-.23,9.07,9.07,0,0,0,7-8l14.13-157.06,150.81,52.21a9.07,9.07,0,0,0,10.38-13.81L477.12,865.31l149.34-55.65a9.08,9.08,0,0,0-.84-17.28Zm-165.89,60a9.07,9.07,0,0,0-4.24,13.74l81.84,115.75-135.1-46.78a9.08,9.08,0,0,0-12,7.76l-12.67,140.92L304.4,962.07a9.09,9.09,0,0,0-6.64-4.33,8.72,8.72,0,0,0-1.14-.07,9,9,0,0,0-6.36,2.61l-101.49,99.94L212,920.72a9.09,9.09,0,0,0-9.72-10.53L59.72,922.31l108.37-92a9.08,9.08,0,0,0-.7-14.38L50.45,734.88l143-1.67a9.07,9.07,0,0,0,8.65-11.44L165.25,585.22l110.86,89.67A9.08,9.08,0,0,0,290,671.71l60.76-128.2,26.55,139A9.07,9.07,0,0,0,390,689.1L519.9,629.51l-70,123.12a9.08,9.08,0,0,0,5.56,13.26l138,36.71Z" transform="translate(-3.34 -161.42)"/><path class="cls-1" d="M455.11,795.58l-62-16.48,31.39-55.18a9.07,9.07,0,0,0-11.67-12.73L354.47,738l-1.38-7.23a9.08,9.08,0,0,0-17.83,3.4l3.55,18.61a9.08,9.08,0,0,0,12.7,6.54l43.3-19.86-23.28,40.92a9.08,9.08,0,0,0,5.56,13.26l45.82,12.19-44.38,16.54a9.06,9.06,0,0,0-4.24,13.74l27.19,38.46-45-15.58a9.06,9.06,0,0,0-12,7.76l-4.23,47-24.44-40.68a9.08,9.08,0,0,0-14.15-1.79l-33.89,33.38,1.14-6.87a9.07,9.07,0,1,0-17.9-3l-5.73,34.42a9.08,9.08,0,0,0,15.32,8l45.58-44.89L339,946.93a9.08,9.08,0,0,0,7.78,4.4,9.43,9.43,0,0,0,2-.23,9.07,9.07,0,0,0,7-8l5.68-63.17,60.73,21a9.08,9.08,0,0,0,10.38-13.82l-36.69-51.88,60-22.37a9.08,9.08,0,0,0-.83-17.28Z" transform="translate(-3.34 -161.42)"/><path class="cls-1" d="M337.53,669.13a9.08,9.08,0,0,0-12.09,4.31L298.18,731l-49.8-40.28a9.08,9.08,0,0,0-14.47,9.42l16.51,61.19-64.25.75a9.07,9.07,0,0,0-5.07,16.53L233.56,815,185,856.2a9.07,9.07,0,0,0,5.87,16l.77,0,75.69-6.43a9.08,9.08,0,0,0-1.54-18.09l-47.41,4,36-30.53a9.06,9.06,0,0,0-.71-14.37L214.8,779.85l47.54-.55A9.08,9.08,0,0,0,271,767.86l-12.27-45.47,37,29.94a9.08,9.08,0,0,0,13.91-3.17l32.2-67.95A9.07,9.07,0,0,0,337.53,669.13Z" transform="translate(-3.34 -161.42)"/></g><g id="Capa_6" data-name="Capa 6"><line class="cls-2" x1="550.61" y1="398" x2="61.72" y2="913.5"/><line class="cls-2" x1="65.45" y1="411.11" x2="560.82" y2="902.05"/></g></svg>