<svg xmlns="http://www.w3.org/2000/svg" viewBox="0 0 908.27 729.37"><defs><style>.cls-1{fill:#fff;}.cls-2{fill:none;stroke:#000;stroke-miterlimit:10;stroke-width:42px;}</style></defs><title>Poder agua hielo</title><g id="Capa_1" data-name="Capa 1"><path d="M1091.55,902.55h0a148.49,148.49,0,0,1-34.48-33.43c-23-26.13-52.25-58.52-106.58-58.52S867.94,842,843.91,870.16s-39.71,44.93-75.23,44.93-53.29-19.85-75.24-44.93-51.2-59.56-106.58-59.56S504.32,842,480.28,870.16s-39.7,44.93-75.23,44.93-53.29-19.85-75.23-44.93a177.6,177.6,0,0,0-55.38-48.06,21,21,0,0,0-18.81,37.61,160.73,160.73,0,0,1,42.84,37.62c24,28.21,52.25,59.56,106.58,59.56s82.55-31.35,106.58-59.56,39.71-44.93,75.23-44.93,53.29,19.85,75.24,44.93,51.2,59.56,106.58,59.56,82.54-31.35,106.58-59.56S915,852.4,950.49,852.4s53.29,19.85,75.23,44.93a199.82,199.82,0,0,0,42.84,40.75,21.16,21.16,0,0,0,23-35.53Z" transform="translate(-244 -314.84)"/><path d="M1091.55,745.82h0a148.53,148.53,0,0,1-34.48-33.44c-23-26.12-52.25-58.51-106.58-58.51s-82.55,31.34-106.58,59.56-39.71,44.93-75.23,44.93-53.29-19.86-75.24-44.93-51.2-59.56-106.58-59.56-82.54,31.34-106.58,59.56-39.7,44.93-75.23,44.93-53.29-19.86-75.23-44.93a177.76,177.76,0,0,0-55.38-48.07A21,21,0,0,0,255.63,703a160.52,160.52,0,0,1,42.84,37.61c24,28.21,52.25,59.56,106.58,59.56s82.55-31.34,106.58-59.56,39.71-44.93,75.23-44.93,53.29,19.86,75.24,44.93,51.2,59.56,106.58,59.56,82.54-31.34,106.58-59.56,39.7-44.93,75.23-44.93,53.29,19.86,75.23,44.93a199.58,199.58,0,0,0,42.84,40.75,21.16,21.16,0,1,0,23-35.52Z" transform="translate(-244 -314.84)"/><path d="M1091.55,578.63h0a148.49,148.49,0,0,1-34.48-33.43c-23-26.13-52.25-58.52-106.58-58.52S867.94,518,843.91,546.24s-39.71,44.93-75.23,44.93-53.29-19.85-75.24-44.93-51.2-59.56-106.58-59.56S504.32,518,480.28,546.24s-39.7,44.93-75.23,44.93-53.29-19.85-75.23-44.93a177.6,177.6,0,0,0-55.38-48.06,21,21,0,1,0-18.81,37.61,160.73,160.73,0,0,1,42.84,37.62c24,28.21,52.25,59.56,106.58,59.56s82.55-31.35,106.58-59.56,39.71-44.93,75.23-44.93,53.29,19.85,75.24,44.93S713.3,633,768.68,633s82.54-31.35,106.58-59.56,39.7-44.93,75.23-44.93,53.29,19.85,75.23,44.93a199.82,199.82,0,0,0,42.84,40.75,21.16,21.16,0,0,0,23-35.53Z" transform="translate(-244 -314.84)"/><path d="M255.63,379.06a160.87,160.87,0,0,1,42.84,37.61c24,28.22,52.25,59.56,106.58,59.56s82.55-31.34,106.58-59.56,39.71-44.93,75.23-44.93,53.29,19.86,75.24,44.93,51.2,59.56,106.58,59.56,82.54-31.34,106.58-59.56,39.7-44.93,75.23-44.93,53.29,19.86,75.23,44.93a199.87,199.87,0,0,0,42.84,40.76,21.16,21.16,0,0,0,23-35.53h0a148.13,148.13,0,0,1-34.48-33.44c-23-26.12-52.25-58.51-106.58-58.51s-82.55,31.34-106.58,59.56-39.71,44.93-75.24,44.93-53.29-19.86-75.23-44.93S642.24,330,586.86,330s-82.54,31.34-106.58,59.56-39.7,44.93-75.23,44.93-53.29-19.86-75.23-44.93a177.76,177.76,0,0,0-55.38-48.07,21,21,0,0,0-18.81,37.62Z" transform="translate(-244 -314.84)"/></g><g id="Capa_4" data-name="Capa 4"><polygon class="cls-1" points="80 695.16 84.34 691.57 883 32.16 894 646.16 80 695.16"/></g><g id="Capa_2" data-name="Capa 2"><line class="cls-2" x1="68" y1="681.16" x2="869" y2="16.16"/></g><g id="Capa_3" data-name="Capa 3"><path d="M491.32,981.28a1.87,1.87,0,0,0-1.53-.15L478.53,985l-6.91-3.92,7.77-2.81a1.92,1.92,0,0,0,1-.84l.07-.13a1.88,1.88,0,0,0-.71-2.56,1.9,1.9,0,0,0-1.53-.14L467,978.42l-6.18-3.5,0-3.14,6.13-3.6,11.32,3.65a1.88,1.88,0,0,0,2.19-2.74l-.08-.13a1.84,1.84,0,0,0-1-.82l-7.82-2.68,6.85-4,11.32,3.65a1.81,1.81,0,0,0,1.52-.17,1.87,1.87,0,0,0,.67-2.57l-.08-.12a1.85,1.85,0,0,0-1-.83L483,958.71l3.85-2.26a2.72,2.72,0,1,0-2.76-4.69L480.19,954l1.45-8.13a1.85,1.85,0,0,0-.23-1.28l-.07-.13a1.88,1.88,0,0,0-2.57-.66,1.85,1.85,0,0,0-.89,1.25l-2.3,11.67-6.85,4,1.45-8.13a1.87,1.87,0,0,0-.23-1.29l-.07-.12a1.88,1.88,0,0,0-3.46.58l-2.3,11.67-4.39,2.59-4.48-2.19-.05-5.44,8.82-8a1.85,1.85,0,0,0,.62-1.41,1.88,1.88,0,0,0-1.89-1.86h-.15a1.94,1.94,0,0,0-1.22.46l-6.22,5.43-.07-7.94,8.82-8a1.85,1.85,0,0,0,.62-1.41,1.88,1.88,0,0,0-1.89-1.86h-.15a1.9,1.9,0,0,0-1.22.47l-6.22,5.43,0-4.47a2.72,2.72,0,1,0-5.44,0l0,4.47-6.32-5.32a1.84,1.84,0,0,0-1.23-.44h-.15a1.88,1.88,0,0,0-1.86,1.89,1.92,1.92,0,0,0,.64,1.4l9,7.83.07,7.94-6.32-5.33a2,2,0,0,0-1.23-.44H442a1.89,1.89,0,0,0-1.86,1.9,1.94,1.94,0,0,0,.64,1.4l9,7.82.05,5.44-4.45,2.27-4.43-2.51-2.5-11.63a1.86,1.86,0,0,0-.91-1.24,1.88,1.88,0,0,0-2.56.71l-.07.13a1.9,1.9,0,0,0-.21,1.28l1.59,8.11-6.91-3.91-2.5-11.63a1.84,1.84,0,0,0-.91-1.24,1.87,1.87,0,0,0-2.56.71l-.07.13a1.84,1.84,0,0,0-.21,1.28l1.59,8.11-3.89-2.2a2.72,2.72,0,1,0-2.68,4.73l3.89,2.2L414.25,962a1.88,1.88,0,0,0-1,.84l-.07.13a1.88,1.88,0,0,0,.71,2.56,1.86,1.86,0,0,0,1.53.14l11.25-3.84,6.92,3.92-7.77,2.81a1.88,1.88,0,0,0-1,.84l-.07.13a1.88,1.88,0,0,0,2.24,2.7l11.25-3.84,6.19,3.5,0,3.14-6.13,3.6L427,975a1.81,1.81,0,0,0-1.52.17,1.87,1.87,0,0,0-.67,2.57l.08.12a1.85,1.85,0,0,0,1,.83l7.81,2.68-6.85,4-11.32-3.66a1.88,1.88,0,0,0-2.19,2.74l.08.13a1.79,1.79,0,0,0,1,.82l7.81,2.68-3.85,2.27a2.72,2.72,0,1,0,2.76,4.69l3.85-2.27-1.45,8.13a1.87,1.87,0,0,0,.23,1.29l.07.12a1.88,1.88,0,0,0,3.46-.58l2.3-11.67,6.85-4L435,994.2a1.84,1.84,0,0,0,.23,1.28l.07.13a1.88,1.88,0,0,0,3.46-.59l2.3-11.67,4.39-2.58L450,983l.05,5.44-8.82,8a1.88,1.88,0,0,0,1.27,3.27h.15a1.79,1.79,0,0,0,1.21-.46l6.23-5.43.07,8-8.82,8a1.88,1.88,0,0,0,1.27,3.27h.15a1.89,1.89,0,0,0,1.22-.46l6.22-5.43,0,4.47a2.72,2.72,0,1,0,5.44,0l0-4.46,6.32,5.32a1.89,1.89,0,0,0,1.23.44h.14a1.88,1.88,0,0,0,1.86-1.89,1.83,1.83,0,0,0-.64-1.4l-8.95-7.83-.07-7.94,6.32,5.32a1.84,1.84,0,0,0,1.23.44h.14a1.87,1.87,0,0,0,1.86-1.89,1.83,1.83,0,0,0-.64-1.4l-8.95-7.83-.05-5.44,4.45-2.26,4.43,2.51,2.5,11.63a1.88,1.88,0,0,0,3.47.53l.07-.13a1.93,1.93,0,0,0,.21-1.29l-1.59-8.11,6.91,3.92,2.5,11.63a1.88,1.88,0,0,0,3.47.53l.07-.13a1.93,1.93,0,0,0,.21-1.29l-1.59-8.1,3.89,2.2a2.72,2.72,0,1,0,2.68-4.73l-3.89-2.21L491,984.8a1.92,1.92,0,0,0,1-.84l.07-.13A1.87,1.87,0,0,0,491.32,981.28Zm-36-5.16-2.71,1.38-2.73-1.34-.05-5.44,2.71-1.38,2.73,1.34Z" transform="translate(-244 -314.84)"/><path d="M571.32,911.28a1.87,1.87,0,0,0-1.53-.15L558.53,915l-6.91-3.92,7.77-2.81a1.92,1.92,0,0,0,1-.84l.07-.13a1.88,1.88,0,0,0-.71-2.56,1.9,1.9,0,0,0-1.53-.14L547,908.42l-6.18-3.5,0-3.14,6.13-3.6,11.32,3.65a1.88,1.88,0,0,0,2.19-2.74l-.08-.13a1.84,1.84,0,0,0-1-.82l-7.82-2.68,6.85-4,11.32,3.65a1.81,1.81,0,0,0,1.52-.17,1.87,1.87,0,0,0,.67-2.57l-.08-.12a1.85,1.85,0,0,0-1-.83L563,888.71l3.85-2.26a2.72,2.72,0,1,0-2.76-4.69L560.19,884l1.45-8.13a1.85,1.85,0,0,0-.23-1.28l-.07-.13a1.88,1.88,0,0,0-2.57-.66,1.85,1.85,0,0,0-.89,1.25l-2.3,11.67-6.85,4,1.45-8.13a1.87,1.87,0,0,0-.23-1.29l-.07-.12a1.88,1.88,0,0,0-3.46.58l-2.3,11.67-4.39,2.59-4.48-2.19,0-5.44,8.82-8a1.85,1.85,0,0,0,.62-1.41,1.88,1.88,0,0,0-1.89-1.86h-.15a1.94,1.94,0,0,0-1.22.46l-6.22,5.43-.07-7.94,8.82-8a1.88,1.88,0,0,0-1.27-3.28h-.15a1.9,1.9,0,0,0-1.22.47l-6.22,5.43,0-4.47a2.72,2.72,0,1,0-5.44,0l0,4.47-6.32-5.32a1.84,1.84,0,0,0-1.23-.44h-.15a1.88,1.88,0,0,0-1.86,1.89,1.92,1.92,0,0,0,.64,1.4l9,7.83.07,7.94-6.32-5.33a2,2,0,0,0-1.23-.44H522a1.89,1.89,0,0,0-1.86,1.9,1.94,1.94,0,0,0,.64,1.4l9,7.82,0,5.44-4.45,2.27-4.43-2.51-2.5-11.63a1.86,1.86,0,0,0-.91-1.24,1.88,1.88,0,0,0-2.56.71l-.07.13a1.9,1.9,0,0,0-.21,1.28l1.59,8.11-6.91-3.91-2.5-11.63a1.84,1.84,0,0,0-.91-1.24,1.87,1.87,0,0,0-2.56.71l-.07.13a1.84,1.84,0,0,0-.21,1.28l1.59,8.11-3.89-2.2a2.72,2.72,0,1,0-2.68,4.73l3.89,2.2L494.25,892a1.88,1.88,0,0,0-1,.84l-.07.13a1.88,1.88,0,0,0,.71,2.56,1.86,1.86,0,0,0,1.53.14l11.26-3.84,6.91,3.92-7.77,2.81a1.88,1.88,0,0,0-1,.84l-.07.13a1.88,1.88,0,0,0,2.24,2.7l11.25-3.84,6.19,3.5,0,3.14-6.13,3.6L507,905a1.81,1.81,0,0,0-1.52.17,1.87,1.87,0,0,0-.67,2.57l.08.12a1.85,1.85,0,0,0,1,.83l7.81,2.68-6.85,4-11.32-3.66a1.88,1.88,0,0,0-2.19,2.74l.08.13a1.79,1.79,0,0,0,1,.82l7.81,2.68-3.85,2.27a2.72,2.72,0,0,0,2.76,4.69l3.85-2.27-1.45,8.13a1.87,1.87,0,0,0,.23,1.29l.07.12a1.88,1.88,0,0,0,3.46-.58l2.3-11.67,6.85-4L515,924.2a1.84,1.84,0,0,0,.23,1.28l.07.13a1.88,1.88,0,0,0,3.46-.59l2.3-11.67,4.39-2.58L530,913l0,5.44-8.82,8a1.84,1.84,0,0,0-.62,1.4,1.87,1.87,0,0,0,1.89,1.86h.15a1.83,1.83,0,0,0,1.22-.46l6.22-5.43.07,8-8.82,8a1.88,1.88,0,0,0,1.27,3.27h.15a1.89,1.89,0,0,0,1.22-.46l6.22-5.43,0,4.47a2.72,2.72,0,1,0,5.44,0l0-4.46,6.32,5.32a1.89,1.89,0,0,0,1.23.44h.14a1.88,1.88,0,0,0,1.86-1.89,1.83,1.83,0,0,0-.64-1.4l-9-7.83-.07-7.94,6.32,5.32a1.84,1.84,0,0,0,1.23.44h.14a1.87,1.87,0,0,0,1.86-1.89,1.83,1.83,0,0,0-.64-1.4l-8.95-7.83-.05-5.44,4.45-2.26,4.43,2.51,2.5,11.63a1.88,1.88,0,0,0,3.47.53l.07-.13a1.93,1.93,0,0,0,.21-1.29l-1.59-8.11,6.91,3.92,2.5,11.63a1.88,1.88,0,0,0,3.47.53l.07-.13a1.93,1.93,0,0,0,.21-1.29l-1.59-8.1,3.89,2.2a2.72,2.72,0,1,0,2.68-4.73l-3.89-2.21L571,914.8a1.92,1.92,0,0,0,1-.84l.07-.13A1.87,1.87,0,0,0,571.32,911.28Zm-36-5.16-2.71,1.38-2.73-1.34,0-5.44,2.71-1.38,2.73,1.34Z" transform="translate(-244 -314.84)"/><path d="M601.32,991.28a1.87,1.87,0,0,0-1.53-.15L588.53,995l-6.91-3.92,7.77-2.81a1.92,1.92,0,0,0,1-.84l.07-.13a1.88,1.88,0,0,0-.71-2.56,1.9,1.9,0,0,0-1.53-.14L577,988.42l-6.18-3.5,0-3.14,6.13-3.6,11.32,3.65a1.88,1.88,0,0,0,2.19-2.74l-.08-.13a1.84,1.84,0,0,0-1-.82l-7.82-2.68,6.85-4,11.32,3.65a1.81,1.81,0,0,0,1.52-.17,1.87,1.87,0,0,0,.67-2.57l-.08-.12a1.85,1.85,0,0,0-1-.83L593,968.71l3.85-2.26a2.72,2.72,0,1,0-2.76-4.69L590.19,964l1.45-8.13a1.85,1.85,0,0,0-.23-1.28l-.07-.13a1.88,1.88,0,0,0-2.57-.66,1.85,1.85,0,0,0-.89,1.25l-2.3,11.67-6.85,4,1.45-8.13a1.87,1.87,0,0,0-.23-1.29l-.07-.12a1.88,1.88,0,0,0-3.46.58l-2.3,11.67-4.39,2.59-4.48-2.19,0-5.44,8.82-8a1.85,1.85,0,0,0,.62-1.41,1.88,1.88,0,0,0-1.89-1.86h-.15a1.94,1.94,0,0,0-1.22.46l-6.22,5.43-.07-7.94,8.82-8a1.88,1.88,0,0,0-1.27-3.28h-.15a1.9,1.9,0,0,0-1.22.47l-6.22,5.43,0-4.47a2.72,2.72,0,1,0-5.44,0l0,4.47-6.32-5.32a1.84,1.84,0,0,0-1.23-.44h-.15a1.88,1.88,0,0,0-1.86,1.89,1.92,1.92,0,0,0,.64,1.4l9,7.83.07,7.94-6.32-5.33a2,2,0,0,0-1.23-.44H552a1.89,1.89,0,0,0-1.86,1.9,1.94,1.94,0,0,0,.64,1.4l9,7.82,0,5.44-4.45,2.27-4.43-2.51-2.5-11.63a1.86,1.86,0,0,0-.91-1.24,1.88,1.88,0,0,0-2.56.71l-.07.13a1.9,1.9,0,0,0-.21,1.28l1.59,8.11-6.91-3.91-2.5-11.63a1.84,1.84,0,0,0-.91-1.24,1.87,1.87,0,0,0-2.56.71l-.07.13a1.84,1.84,0,0,0-.21,1.28l1.59,8.11-3.89-2.2a2.72,2.72,0,1,0-2.68,4.73l3.89,2.2L524.25,972a1.88,1.88,0,0,0-1,.84l-.07.13a1.88,1.88,0,0,0,.71,2.56,1.86,1.86,0,0,0,1.53.14l11.26-3.84,6.91,3.92-7.77,2.81a1.88,1.88,0,0,0-1,.84l-.07.13a1.88,1.88,0,0,0,2.24,2.7l11.25-3.84,6.19,3.5,0,3.14-6.13,3.6L537,985a1.81,1.81,0,0,0-1.52.17,1.87,1.87,0,0,0-.67,2.57l.08.12a1.85,1.85,0,0,0,1,.83l7.81,2.68-6.85,4-11.32-3.66a1.88,1.88,0,0,0-2.19,2.74l.08.13a1.79,1.79,0,0,0,1,.82l7.81,2.68-3.85,2.27a2.72,2.72,0,0,0,2.76,4.69l3.85-2.27-1.45,8.13a1.87,1.87,0,0,0,.23,1.29l.07.12a1.88,1.88,0,0,0,3.46-.58l2.3-11.67,6.85-4L545,1004.2a1.84,1.84,0,0,0,.23,1.28l.07.13a1.88,1.88,0,0,0,3.46-.59l2.3-11.67,4.39-2.58L560,993l0,5.44-8.82,8a1.84,1.84,0,0,0-.62,1.4,1.87,1.87,0,0,0,1.89,1.86h.15a1.83,1.83,0,0,0,1.22-.46l6.22-5.43.07,8-8.82,8a1.88,1.88,0,0,0,1.27,3.27h.15a1.89,1.89,0,0,0,1.22-.46l6.22-5.43,0,4.47a2.72,2.72,0,1,0,5.44,0l0-4.46,6.32,5.32a1.89,1.89,0,0,0,1.23.44h.14a1.88,1.88,0,0,0,1.86-1.89,1.83,1.83,0,0,0-.64-1.4l-9-7.83-.07-7.94,6.32,5.32a1.84,1.84,0,0,0,1.23.44h.14a1.87,1.87,0,0,0,1.86-1.89,1.83,1.83,0,0,0-.64-1.4l-8.95-7.83-.05-5.44,4.45-2.26,4.43,2.51,2.5,11.63a1.88,1.88,0,0,0,3.47.53l.07-.13a1.93,1.93,0,0,0,.21-1.29l-1.59-8.11,6.91,3.92,2.5,11.63a1.88,1.88,0,0,0,3.47.53l.07-.13a1.93,1.93,0,0,0,.21-1.29l-1.59-8.1,3.89,2.2a2.72,2.72,0,1,0,2.68-4.73l-3.89-2.21L601,994.8a1.92,1.92,0,0,0,1-.84l.07-.13A1.87,1.87,0,0,0,601.32,991.28Zm-36-5.16-2.71,1.38-2.73-1.34,0-5.44,2.71-1.38,2.73,1.34Z" transform="translate(-244 -314.84)"/><path d="M651.32,851.28a1.87,1.87,0,0,0-1.53-.15L638.53,855l-6.91-3.92,7.77-2.81a1.92,1.92,0,0,0,1-.84l.07-.13a1.88,1.88,0,0,0-.71-2.56,1.9,1.9,0,0,0-1.53-.14L627,848.42l-6.18-3.5,0-3.14,6.13-3.6,11.32,3.65a1.88,1.88,0,0,0,2.19-2.74l-.08-.13a1.84,1.84,0,0,0-1-.82l-7.82-2.68,6.85-4,11.32,3.65a1.81,1.81,0,0,0,1.52-.17,1.87,1.87,0,0,0,.67-2.57l-.08-.12a1.85,1.85,0,0,0-1-.83L643,828.71l3.85-2.26a2.72,2.72,0,1,0-2.76-4.69L640.19,824l1.45-8.13a1.85,1.85,0,0,0-.23-1.28l-.07-.13a1.88,1.88,0,0,0-2.57-.66,1.85,1.85,0,0,0-.89,1.25l-2.3,11.67-6.85,4,1.45-8.13a1.87,1.87,0,0,0-.23-1.29l-.07-.12a1.88,1.88,0,0,0-3.46.58l-2.3,11.67-4.39,2.59-4.48-2.19,0-5.44,8.82-8a1.85,1.85,0,0,0,.62-1.41,1.88,1.88,0,0,0-1.89-1.86h-.15a1.94,1.94,0,0,0-1.22.46l-6.22,5.43-.07-7.94,8.82-8a1.88,1.88,0,0,0-1.27-3.28h-.15a1.9,1.9,0,0,0-1.22.47l-6.22,5.43,0-4.47a2.72,2.72,0,1,0-5.44,0l0,4.47-6.32-5.32a1.84,1.84,0,0,0-1.23-.44h-.15a1.88,1.88,0,0,0-1.86,1.89,1.92,1.92,0,0,0,.64,1.4l9,7.83.07,7.94-6.32-5.33a2,2,0,0,0-1.23-.44H602a1.89,1.89,0,0,0-1.86,1.9,1.94,1.94,0,0,0,.64,1.4l9,7.82,0,5.44-4.45,2.27-4.43-2.51-2.5-11.63a1.86,1.86,0,0,0-.91-1.24,1.88,1.88,0,0,0-2.56.71l-.07.13a1.9,1.9,0,0,0-.21,1.28l1.59,8.11-6.91-3.91-2.5-11.63a1.84,1.84,0,0,0-.91-1.24,1.87,1.87,0,0,0-2.56.71l-.07.13a1.84,1.84,0,0,0-.21,1.28l1.59,8.11-3.89-2.2a2.72,2.72,0,1,0-2.68,4.73l3.89,2.2L574.25,832a1.88,1.88,0,0,0-1,.84l-.07.13a1.88,1.88,0,0,0,.71,2.56,1.86,1.86,0,0,0,1.53.14l11.26-3.84,6.91,3.92-7.77,2.81a1.88,1.88,0,0,0-1,.84l-.07.13a1.88,1.88,0,0,0,2.24,2.7l11.25-3.84,6.19,3.5,0,3.14-6.13,3.6L587,845a1.81,1.81,0,0,0-1.52.17,1.87,1.87,0,0,0-.67,2.57l.08.12a1.85,1.85,0,0,0,1,.83l7.81,2.68-6.85,4-11.32-3.66a1.88,1.88,0,0,0-2.19,2.74l.08.13a1.79,1.79,0,0,0,1,.82l7.81,2.68-3.85,2.27a2.72,2.72,0,0,0,2.76,4.69l3.85-2.27-1.45,8.13a1.87,1.87,0,0,0,.23,1.29l.07.12a1.88,1.88,0,0,0,3.46-.58l2.3-11.67,6.85-4L595,864.2a1.84,1.84,0,0,0,.23,1.28l.07.13a1.88,1.88,0,0,0,3.46-.59l2.3-11.67,4.39-2.58L610,853l0,5.44-8.82,8a1.84,1.84,0,0,0-.62,1.4,1.87,1.87,0,0,0,1.89,1.86h.15a1.83,1.83,0,0,0,1.22-.46l6.22-5.43.07,8-8.82,8a1.88,1.88,0,0,0,1.27,3.27h.15a1.89,1.89,0,0,0,1.22-.46l6.22-5.43,0,4.47a2.72,2.72,0,1,0,5.44,0l0-4.46,6.32,5.32a1.89,1.89,0,0,0,1.23.44h.14a1.88,1.88,0,0,0,1.86-1.89,1.83,1.83,0,0,0-.64-1.4l-9-7.83-.07-7.94,6.32,5.32a1.84,1.84,0,0,0,1.23.44h.14a1.87,1.87,0,0,0,1.86-1.89,1.83,1.83,0,0,0-.64-1.4l-8.95-7.83-.05-5.44,4.45-2.26,4.43,2.51,2.5,11.63a1.88,1.88,0,0,0,3.47.53l.07-.13a1.93,1.93,0,0,0,.21-1.29l-1.59-8.11,6.91,3.92,2.5,11.63a1.88,1.88,0,0,0,3.47.53l.07-.13a1.93,1.93,0,0,0,.21-1.29l-1.59-8.1,3.89,2.2a2.72,2.72,0,1,0,2.68-4.73l-3.89-2.21L651,854.8a1.92,1.92,0,0,0,1-.84l.07-.13A1.87,1.87,0,0,0,651.32,851.28Zm-36-5.16-2.71,1.38-2.73-1.34,0-5.44,2.71-1.38,2.73,1.34Z" transform="translate(-244 -314.84)"/><path d="M691.32,951.28a1.87,1.87,0,0,0-1.53-.15L678.53,955l-6.91-3.92,7.77-2.81a1.92,1.92,0,0,0,1-.84l.07-.13a1.88,1.88,0,0,0-.71-2.56,1.9,1.9,0,0,0-1.53-.14L667,948.42l-6.18-3.5,0-3.14,6.13-3.6,11.32,3.65a1.88,1.88,0,0,0,2.19-2.74l-.08-.13a1.84,1.84,0,0,0-1-.82l-7.82-2.68,6.85-4,11.32,3.65a1.81,1.81,0,0,0,1.52-.17,1.87,1.87,0,0,0,.67-2.57l-.08-.12a1.85,1.85,0,0,0-1-.83L683,928.71l3.85-2.26a2.72,2.72,0,1,0-2.76-4.69L680.19,924l1.45-8.13a1.85,1.85,0,0,0-.23-1.28l-.07-.13a1.88,1.88,0,0,0-2.57-.66,1.85,1.85,0,0,0-.89,1.25l-2.3,11.67-6.85,4,1.45-8.13a1.87,1.87,0,0,0-.23-1.29l-.07-.12a1.88,1.88,0,0,0-3.46.58l-2.3,11.67-4.39,2.59-4.48-2.19,0-5.44,8.82-8a1.85,1.85,0,0,0,.62-1.41,1.88,1.88,0,0,0-1.89-1.86h-.15a1.94,1.94,0,0,0-1.22.46l-6.22,5.43-.07-7.94,8.82-8a1.88,1.88,0,0,0-1.27-3.28h-.15a1.9,1.9,0,0,0-1.22.47l-6.22,5.43,0-4.47a2.72,2.72,0,1,0-5.44,0l0,4.47-6.32-5.32a1.84,1.84,0,0,0-1.23-.44h-.15a1.88,1.88,0,0,0-1.86,1.89,1.92,1.92,0,0,0,.64,1.4l9,7.83.07,7.94-6.32-5.33a2,2,0,0,0-1.23-.44H642a1.89,1.89,0,0,0-1.86,1.9,1.94,1.94,0,0,0,.64,1.4l9,7.82,0,5.44-4.45,2.27-4.43-2.51-2.5-11.63a1.86,1.86,0,0,0-.91-1.24,1.88,1.88,0,0,0-2.56.71l-.07.13a1.9,1.9,0,0,0-.21,1.28l1.59,8.11-6.91-3.91-2.5-11.63a1.84,1.84,0,0,0-.91-1.24,1.87,1.87,0,0,0-2.56.71l-.07.13a1.84,1.84,0,0,0-.21,1.28l1.59,8.11-3.89-2.2a2.72,2.72,0,1,0-2.68,4.73l3.89,2.2L614.25,932a1.88,1.88,0,0,0-1,.84l-.07.13a1.88,1.88,0,0,0,.71,2.56,1.86,1.86,0,0,0,1.53.14l11.26-3.84,6.91,3.92-7.77,2.81a1.88,1.88,0,0,0-1,.84l-.07.13a1.88,1.88,0,0,0,2.24,2.7l11.25-3.84,6.19,3.5,0,3.14-6.13,3.6L627,945a1.81,1.81,0,0,0-1.52.17,1.87,1.87,0,0,0-.67,2.57l.08.12a1.85,1.85,0,0,0,1,.83l7.81,2.68-6.85,4-11.32-3.66a1.88,1.88,0,0,0-2.19,2.74l.08.13a1.79,1.79,0,0,0,1,.82l7.81,2.68-3.85,2.27a2.72,2.72,0,0,0,2.76,4.69l3.85-2.27-1.45,8.13a1.87,1.87,0,0,0,.23,1.29l.07.12a1.88,1.88,0,0,0,3.46-.58l2.3-11.67,6.85-4L635,964.2a1.84,1.84,0,0,0,.23,1.28l.07.13a1.88,1.88,0,0,0,3.46-.59l2.3-11.67,4.39-2.58L650,953l0,5.44-8.82,8a1.84,1.84,0,0,0-.62,1.4,1.87,1.87,0,0,0,1.89,1.86h.15a1.83,1.83,0,0,0,1.22-.46l6.22-5.43.07,8-8.82,8a1.88,1.88,0,0,0,1.27,3.27h.15a1.89,1.89,0,0,0,1.22-.46l6.22-5.43,0,4.47a2.72,2.72,0,1,0,5.44,0l0-4.46,6.32,5.32a1.89,1.89,0,0,0,1.23.44h.14a1.88,1.88,0,0,0,1.86-1.89,1.83,1.83,0,0,0-.64-1.4l-9-7.83-.07-7.94,6.32,5.32a1.84,1.84,0,0,0,1.23.44h.14a1.87,1.87,0,0,0,1.86-1.89,1.83,1.83,0,0,0-.64-1.4l-8.95-7.83-.05-5.44,4.45-2.26,4.43,2.51,2.5,11.63a1.88,1.88,0,0,0,3.47.53l.07-.13a1.93,1.93,0,0,0,.21-1.29l-1.59-8.11,6.91,3.92,2.5,11.63a1.88,1.88,0,0,0,3.47.53l.07-.13a1.93,1.93,0,0,0,.21-1.29l-1.59-8.1,3.89,2.2a2.72,2.72,0,1,0,2.68-4.73l-3.89-2.21L691,954.8a1.92,1.92,0,0,0,1-.84l.07-.13A1.87,1.87,0,0,0,691.32,951.28Zm-36-5.16-2.71,1.38-2.73-1.34,0-5.44,2.71-1.38,2.73,1.34Z" transform="translate(-244 -314.84)"/><path d="M741.32,781.28a1.87,1.87,0,0,0-1.53-.15L728.53,785l-6.91-3.92,7.77-2.81a1.92,1.92,0,0,0,1-.84l.07-.13a1.88,1.88,0,0,0-.71-2.56,1.9,1.9,0,0,0-1.53-.14L717,778.42l-6.18-3.5,0-3.14,6.13-3.6,11.32,3.65a1.88,1.88,0,0,0,2.19-2.74l-.08-.13a1.84,1.84,0,0,0-1-.82l-7.82-2.68,6.85-4,11.32,3.65a1.81,1.81,0,0,0,1.52-.17,1.87,1.87,0,0,0,.67-2.57l-.08-.12a1.85,1.85,0,0,0-1-.83L733,758.71l3.85-2.26a2.72,2.72,0,1,0-2.76-4.69L730.19,754l1.45-8.13a1.85,1.85,0,0,0-.23-1.28l-.07-.13a1.88,1.88,0,0,0-2.57-.66,1.85,1.85,0,0,0-.89,1.25l-2.3,11.67-6.85,4,1.45-8.13a1.87,1.87,0,0,0-.23-1.29l-.07-.12a1.88,1.88,0,0,0-3.46.58l-2.3,11.67-4.39,2.59-4.48-2.19,0-5.44,8.82-8a1.85,1.85,0,0,0,.62-1.41,1.88,1.88,0,0,0-1.89-1.86h-.15a1.94,1.94,0,0,0-1.22.46l-6.22,5.43-.07-7.94,8.82-8a1.88,1.88,0,0,0-1.27-3.28h-.15a1.9,1.9,0,0,0-1.22.47l-6.22,5.43,0-4.47a2.72,2.72,0,1,0-5.44,0l0,4.47-6.32-5.32a1.84,1.84,0,0,0-1.23-.44h-.15a1.88,1.88,0,0,0-1.86,1.89,1.92,1.92,0,0,0,.64,1.4l9,7.83.07,7.94-6.32-5.33a2,2,0,0,0-1.23-.44H692a1.89,1.89,0,0,0-1.86,1.9,1.94,1.94,0,0,0,.64,1.4l9,7.82,0,5.44-4.45,2.27-4.43-2.51-2.5-11.63a1.86,1.86,0,0,0-.91-1.24,1.88,1.88,0,0,0-2.56.71l-.07.13a1.9,1.9,0,0,0-.21,1.28l1.59,8.11-6.91-3.91-2.5-11.63a1.84,1.84,0,0,0-.91-1.24,1.87,1.87,0,0,0-2.56.71l-.07.13a1.84,1.84,0,0,0-.21,1.28l1.59,8.11-3.89-2.2a2.72,2.72,0,1,0-2.68,4.73l3.89,2.2L664.25,762a1.88,1.88,0,0,0-1,.84l-.07.13a1.88,1.88,0,0,0,.71,2.56,1.86,1.86,0,0,0,1.53.14l11.26-3.84,6.91,3.92-7.77,2.81a1.88,1.88,0,0,0-1,.84l-.07.13a1.88,1.88,0,0,0,2.24,2.7l11.25-3.84,6.19,3.5,0,3.14-6.13,3.6L677,775a1.81,1.81,0,0,0-1.52.17,1.87,1.87,0,0,0-.67,2.57l.08.12a1.85,1.85,0,0,0,1,.83l7.81,2.68-6.85,4-11.32-3.66a1.88,1.88,0,0,0-2.19,2.74l.08.13a1.79,1.79,0,0,0,1,.82l7.81,2.68-3.85,2.27a2.72,2.72,0,0,0,2.76,4.69l3.85-2.27-1.45,8.13a1.87,1.87,0,0,0,.23,1.29l.07.12a1.88,1.88,0,0,0,3.46-.58l2.3-11.67,6.85-4L685,794.2a1.84,1.84,0,0,0,.23,1.28l.07.13a1.88,1.88,0,0,0,3.46-.59l2.3-11.67,4.39-2.58L700,783l0,5.44-8.82,8a1.84,1.84,0,0,0-.62,1.4,1.87,1.87,0,0,0,1.89,1.86h.15a1.83,1.83,0,0,0,1.22-.46l6.22-5.43.07,8-8.82,8a1.88,1.88,0,0,0,1.27,3.27h.15a1.89,1.89,0,0,0,1.22-.46l6.22-5.43,0,4.47a2.72,2.72,0,1,0,5.44,0l0-4.46,6.32,5.32a1.89,1.89,0,0,0,1.23.44h.14a1.88,1.88,0,0,0,1.86-1.89,1.83,1.83,0,0,0-.64-1.4l-9-7.83-.07-7.94,6.32,5.32a1.84,1.84,0,0,0,1.23.44h.14a1.87,1.87,0,0,0,1.86-1.89,1.83,1.83,0,0,0-.64-1.4l-8.95-7.83-.05-5.44,4.45-2.26,4.43,2.51,2.5,11.63a1.88,1.88,0,0,0,3.47.53l.07-.13a1.93,1.93,0,0,0,.21-1.29l-1.59-8.11,6.91,3.92,2.5,11.63a1.88,1.88,0,0,0,3.47.53l.07-.13a1.93,1.93,0,0,0,.21-1.29l-1.59-8.1,3.89,2.2a2.72,2.72,0,1,0,2.68-4.73l-3.89-2.21L741,784.8a1.92,1.92,0,0,0,1-.84l.07-.13A1.87,1.87,0,0,0,741.32,781.28Zm-36-5.16-2.71,1.38-2.73-1.34,0-5.44,2.71-1.38,2.73,1.34Z" transform="translate(-244 -314.84)"/><path d="M741.32,871.28a1.87,1.87,0,0,0-1.53-.15L728.53,875l-6.91-3.92,7.77-2.81a1.92,1.92,0,0,0,1-.84l.07-.13a1.88,1.88,0,0,0-.71-2.56,1.9,1.9,0,0,0-1.53-.14L717,868.42l-6.18-3.5,0-3.14,6.13-3.6,11.32,3.65a1.88,1.88,0,0,0,2.19-2.74l-.08-.13a1.84,1.84,0,0,0-1-.82l-7.82-2.68,6.85-4,11.32,3.65a1.81,1.81,0,0,0,1.52-.17,1.87,1.87,0,0,0,.67-2.57l-.08-.12a1.85,1.85,0,0,0-1-.83L733,848.71l3.85-2.26a2.72,2.72,0,1,0-2.76-4.69L730.19,844l1.45-8.13a1.85,1.85,0,0,0-.23-1.28l-.07-.13a1.88,1.88,0,0,0-2.57-.66,1.85,1.85,0,0,0-.89,1.25l-2.3,11.67-6.85,4,1.45-8.13a1.87,1.87,0,0,0-.23-1.29l-.07-.12a1.88,1.88,0,0,0-3.46.58l-2.3,11.67-4.39,2.59-4.48-2.19,0-5.44,8.82-8a1.85,1.85,0,0,0,.62-1.41,1.88,1.88,0,0,0-1.89-1.86h-.15a1.94,1.94,0,0,0-1.22.46l-6.22,5.43-.07-7.94,8.82-8a1.88,1.88,0,0,0-1.27-3.28h-.15a1.9,1.9,0,0,0-1.22.47l-6.22,5.43,0-4.47a2.72,2.72,0,1,0-5.44,0l0,4.47-6.32-5.32a1.84,1.84,0,0,0-1.23-.44h-.15a1.88,1.88,0,0,0-1.86,1.89,1.92,1.92,0,0,0,.64,1.4l9,7.83.07,7.94-6.32-5.33a2,2,0,0,0-1.23-.44H692a1.89,1.89,0,0,0-1.86,1.9,1.94,1.94,0,0,0,.64,1.4l9,7.82,0,5.44-4.45,2.27-4.43-2.51-2.5-11.63a1.86,1.86,0,0,0-.91-1.24,1.88,1.88,0,0,0-2.56.71l-.07.13a1.9,1.9,0,0,0-.21,1.28l1.59,8.11-6.91-3.91-2.5-11.63a1.84,1.84,0,0,0-.91-1.24,1.87,1.87,0,0,0-2.56.71l-.07.13a1.84,1.84,0,0,0-.21,1.28l1.59,8.11-3.89-2.2a2.72,2.72,0,1,0-2.68,4.73l3.89,2.2L664.25,852a1.88,1.88,0,0,0-1,.84l-.07.13a1.88,1.88,0,0,0,.71,2.56,1.86,1.86,0,0,0,1.53.14l11.26-3.84,6.91,3.92-7.77,2.81a1.88,1.88,0,0,0-1,.84l-.07.13a1.88,1.88,0,0,0,2.24,2.7l11.25-3.84,6.19,3.5,0,3.14-6.13,3.6L677,865a1.81,1.81,0,0,0-1.52.17,1.87,1.87,0,0,0-.67,2.57l.08.12a1.85,1.85,0,0,0,1,.83l7.81,2.68-6.85,4-11.32-3.66a1.88,1.88,0,0,0-2.19,2.74l.08.13a1.79,1.79,0,0,0,1,.82l7.81,2.68-3.85,2.27a2.72,2.72,0,0,0,2.76,4.69l3.85-2.27-1.45,8.13a1.87,1.87,0,0,0,.23,1.29l.07.12a1.88,1.88,0,0,0,3.46-.58l2.3-11.67,6.85-4L685,884.2a1.84,1.84,0,0,0,.23,1.28l.07.13a1.88,1.88,0,0,0,3.46-.59l2.3-11.67,4.39-2.58L700,873l0,5.44-8.82,8a1.84,1.84,0,0,0-.62,1.4,1.87,1.87,0,0,0,1.89,1.86h.15a1.83,1.83,0,0,0,1.22-.46l6.22-5.43.07,8-8.82,8a1.88,1.88,0,0,0,1.27,3.27h.15a1.89,1.89,0,0,0,1.22-.46l6.22-5.43,0,4.47a2.72,2.72,0,1,0,5.44,0l0-4.46,6.32,5.32a1.89,1.89,0,0,0,1.23.44h.14a1.88,1.88,0,0,0,1.86-1.89,1.83,1.83,0,0,0-.64-1.4l-9-7.83-.07-7.94,6.32,5.32a1.84,1.84,0,0,0,1.23.44h.14a1.87,1.87,0,0,0,1.86-1.89,1.83,1.83,0,0,0-.64-1.4l-8.95-7.83-.05-5.44,4.45-2.26,4.43,2.51,2.5,11.63a1.88,1.88,0,0,0,3.47.53l.07-.13a1.93,1.93,0,0,0,.21-1.29l-1.59-8.11,6.91,3.92,2.5,11.63a1.88,1.88,0,0,0,3.47.53l.07-.13a1.93,1.93,0,0,0,.21-1.29l-1.59-8.1,3.89,2.2a2.72,2.72,0,1,0,2.68-4.73l-3.89-2.21L741,874.8a1.92,1.92,0,0,0,1-.84l.07-.13A1.87,1.87,0,0,0,741.32,871.28Zm-36-5.16-2.71,1.38-2.73-1.34,0-5.44,2.71-1.38,2.73,1.34Z" transform="translate(-244 -314.84)"/><path d="M811.32,941.28a1.87,1.87,0,0,0-1.53-.15L798.53,945l-6.91-3.92,7.77-2.81a1.92,1.92,0,0,0,1-.84l.07-.13a1.88,1.88,0,0,0-.71-2.56,1.9,1.9,0,0,0-1.53-.14L787,938.42l-6.18-3.5,0-3.14,6.13-3.6,11.32,3.65a1.88,1.88,0,0,0,2.19-2.74l-.08-.13a1.84,1.84,0,0,0-1-.82l-7.82-2.68,6.85-4,11.32,3.65a1.81,1.81,0,0,0,1.52-.17,1.87,1.87,0,0,0,.67-2.57l-.08-.12a1.85,1.85,0,0,0-1-.83L803,918.71l3.85-2.26a2.72,2.72,0,1,0-2.76-4.69L800.19,914l1.45-8.13a1.85,1.85,0,0,0-.23-1.28l-.07-.13a1.88,1.88,0,0,0-2.57-.66,1.85,1.85,0,0,0-.89,1.25l-2.3,11.67-6.85,4,1.45-8.13a1.87,1.87,0,0,0-.23-1.29l-.07-.12a1.88,1.88,0,0,0-3.46.58l-2.3,11.67-4.39,2.59-4.48-2.19,0-5.44,8.82-8a1.85,1.85,0,0,0,.62-1.41,1.88,1.88,0,0,0-1.89-1.86h-.15a1.94,1.94,0,0,0-1.22.46l-6.22,5.43-.07-7.94,8.82-8a1.88,1.88,0,0,0-1.27-3.28h-.15a1.9,1.9,0,0,0-1.22.47l-6.22,5.43,0-4.47a2.72,2.72,0,1,0-5.44,0l0,4.47-6.32-5.32a1.84,1.84,0,0,0-1.23-.44h-.15a1.88,1.88,0,0,0-1.86,1.89,1.92,1.92,0,0,0,.64,1.4l9,7.83.07,7.94-6.32-5.33a2,2,0,0,0-1.23-.44H762a1.89,1.89,0,0,0-1.86,1.9,1.94,1.94,0,0,0,.64,1.4l9,7.82,0,5.44-4.45,2.27-4.43-2.51-2.5-11.63a1.86,1.86,0,0,0-.91-1.24,1.88,1.88,0,0,0-2.56.71l-.07.13a1.9,1.9,0,0,0-.21,1.28l1.59,8.11-6.91-3.91-2.5-11.63a1.84,1.84,0,0,0-.91-1.24,1.87,1.87,0,0,0-2.56.71l-.07.13a1.84,1.84,0,0,0-.21,1.28l1.59,8.11-3.89-2.2a2.72,2.72,0,1,0-2.68,4.73l3.89,2.2L734.25,922a1.88,1.88,0,0,0-1,.84l-.07.13a1.88,1.88,0,0,0,.71,2.56,1.86,1.86,0,0,0,1.53.14l11.26-3.84,6.91,3.92-7.77,2.81a1.88,1.88,0,0,0-1,.84l-.07.13a1.88,1.88,0,0,0,2.24,2.7l11.25-3.84,6.19,3.5,0,3.14-6.13,3.6L747,935a1.81,1.81,0,0,0-1.52.17,1.87,1.87,0,0,0-.67,2.57l.08.12a1.85,1.85,0,0,0,1,.83l7.81,2.68-6.85,4-11.32-3.66a1.88,1.88,0,0,0-2.19,2.74l.08.13a1.79,1.79,0,0,0,1,.82l7.81,2.68-3.85,2.27a2.72,2.72,0,0,0,2.76,4.69l3.85-2.27-1.45,8.13a1.87,1.87,0,0,0,.23,1.29l.07.12a1.88,1.88,0,0,0,3.46-.58l2.3-11.67,6.85-4L755,954.2a1.84,1.84,0,0,0,.23,1.28l.07.13a1.88,1.88,0,0,0,3.46-.59l2.3-11.67,4.39-2.58L770,943l0,5.44-8.82,8a1.84,1.84,0,0,0-.62,1.4,1.87,1.87,0,0,0,1.89,1.86h.15a1.83,1.83,0,0,0,1.22-.46l6.22-5.43.07,8-8.82,8a1.88,1.88,0,0,0,1.27,3.27h.15a1.89,1.89,0,0,0,1.22-.46l6.22-5.43,0,4.47a2.72,2.72,0,1,0,5.44,0l0-4.46,6.32,5.32a1.89,1.89,0,0,0,1.23.44h.14a1.88,1.88,0,0,0,1.86-1.89,1.83,1.83,0,0,0-.64-1.4l-9-7.83-.07-7.94,6.32,5.32a1.84,1.84,0,0,0,1.23.44h.14a1.87,1.87,0,0,0,1.86-1.89,1.83,1.83,0,0,0-.64-1.4l-8.95-7.83-.05-5.44,4.45-2.26,4.43,2.51,2.5,11.63a1.88,1.88,0,0,0,3.47.53l.07-.13a1.93,1.93,0,0,0,.21-1.29l-1.59-8.11,6.91,3.92,2.5,11.63a1.88,1.88,0,0,0,3.47.53l.07-.13a1.93,1.93,0,0,0,.21-1.29l-1.59-8.1,3.89,2.2a2.72,2.72,0,1,0,2.68-4.73l-3.89-2.21L811,944.8a1.92,1.92,0,0,0,1-.84l.07-.13A1.87,1.87,0,0,0,811.32,941.28Zm-36-5.16-2.71,1.38-2.73-1.34,0-5.44,2.71-1.38,2.73,1.34Z" transform="translate(-244 -314.84)"/><path d="M821.32,821.28a1.87,1.87,0,0,0-1.53-.15L808.53,825l-6.91-3.92,7.77-2.81a1.92,1.92,0,0,0,1-.84l.07-.13a1.88,1.88,0,0,0-.71-2.56,1.9,1.9,0,0,0-1.53-.14L797,818.42l-6.18-3.5,0-3.14,6.13-3.6,11.32,3.65a1.88,1.88,0,0,0,2.19-2.74l-.08-.13a1.84,1.84,0,0,0-1-.82l-7.82-2.68,6.85-4,11.32,3.65a1.81,1.81,0,0,0,1.52-.17,1.87,1.87,0,0,0,.67-2.57l-.08-.12a1.85,1.85,0,0,0-1-.83L813,798.71l3.85-2.26a2.72,2.72,0,1,0-2.76-4.69L810.19,794l1.45-8.13a1.85,1.85,0,0,0-.23-1.28l-.07-.13a1.88,1.88,0,0,0-2.57-.66,1.85,1.85,0,0,0-.89,1.25l-2.3,11.67-6.85,4,1.45-8.13a1.87,1.87,0,0,0-.23-1.29l-.07-.12a1.88,1.88,0,0,0-3.46.58l-2.3,11.67-4.39,2.59-4.48-2.19,0-5.44,8.82-8a1.85,1.85,0,0,0,.62-1.41,1.88,1.88,0,0,0-1.89-1.86h-.15a1.94,1.94,0,0,0-1.22.46l-6.22,5.43-.07-7.94,8.82-8a1.88,1.88,0,0,0-1.27-3.28h-.15a1.9,1.9,0,0,0-1.22.47l-6.22,5.43,0-4.47a2.72,2.72,0,1,0-5.44,0l0,4.47-6.32-5.32a1.84,1.84,0,0,0-1.23-.44h-.15a1.88,1.88,0,0,0-1.86,1.89,1.92,1.92,0,0,0,.64,1.4l9,7.83.07,7.94-6.32-5.33a2,2,0,0,0-1.23-.44H772a1.89,1.89,0,0,0-1.86,1.9,1.94,1.94,0,0,0,.64,1.4l9,7.82,0,5.44-4.45,2.27-4.43-2.51-2.5-11.63a1.86,1.86,0,0,0-.91-1.24,1.88,1.88,0,0,0-2.56.71l-.07.13a1.9,1.9,0,0,0-.21,1.28l1.59,8.11-6.91-3.91-2.5-11.63a1.84,1.84,0,0,0-.91-1.24,1.87,1.87,0,0,0-2.56.71l-.07.13a1.84,1.84,0,0,0-.21,1.28l1.59,8.11-3.89-2.2a2.72,2.72,0,1,0-2.68,4.73l3.89,2.2L744.25,802a1.88,1.88,0,0,0-1,.84l-.07.13a1.88,1.88,0,0,0,.71,2.56,1.86,1.86,0,0,0,1.53.14l11.26-3.84,6.91,3.92-7.77,2.81a1.88,1.88,0,0,0-1,.84l-.07.13a1.88,1.88,0,0,0,2.24,2.7l11.25-3.84,6.19,3.5,0,3.14-6.13,3.6L757,815a1.81,1.81,0,0,0-1.52.17,1.87,1.87,0,0,0-.67,2.57l.08.12a1.85,1.85,0,0,0,1,.83l7.81,2.68-6.85,4-11.32-3.66a1.88,1.88,0,0,0-2.19,2.74l.08.13a1.79,1.79,0,0,0,1,.82l7.81,2.68-3.85,2.27a2.72,2.72,0,0,0,2.76,4.69l3.85-2.27-1.45,8.13a1.87,1.87,0,0,0,.23,1.29l.07.12a1.88,1.88,0,0,0,3.46-.58l2.3-11.67,6.85-4L765,834.2a1.84,1.84,0,0,0,.23,1.28l.07.13a1.88,1.88,0,0,0,3.46-.59l2.3-11.67,4.39-2.58L780,823l0,5.44-8.82,8a1.84,1.84,0,0,0-.62,1.4,1.87,1.87,0,0,0,1.89,1.86h.15a1.83,1.83,0,0,0,1.22-.46l6.22-5.43.07,8-8.82,8a1.88,1.88,0,0,0,1.27,3.27h.15a1.89,1.89,0,0,0,1.22-.46l6.22-5.43,0,4.47a2.72,2.72,0,1,0,5.44,0l0-4.46,6.32,5.32a1.89,1.89,0,0,0,1.23.44h.14a1.88,1.88,0,0,0,1.86-1.89,1.83,1.83,0,0,0-.64-1.4l-9-7.83-.07-7.94,6.32,5.32a1.84,1.84,0,0,0,1.23.44h.14a1.87,1.87,0,0,0,1.86-1.89,1.83,1.83,0,0,0-.64-1.4l-8.95-7.83-.05-5.44,4.45-2.26,4.43,2.51,2.5,11.63a1.88,1.88,0,0,0,3.47.53l.07-.13a1.93,1.93,0,0,0,.21-1.29l-1.59-8.11,6.91,3.92,2.5,11.63a1.88,1.88,0,0,0,3.47.53l.07-.13a1.93,1.93,0,0,0,.21-1.29l-1.59-8.1,3.89,2.2a2.72,2.72,0,1,0,2.68-4.73l-3.89-2.21L821,824.8a1.92,1.92,0,0,0,1-.84l.07-.13A1.87,1.87,0,0,0,821.32,821.28Zm-36-5.16-2.71,1.38-2.73-1.34,0-5.44,2.71-1.38,2.73,1.34Z" transform="translate(-244 -314.84)"/><path d="M821.32,711.28a1.87,1.87,0,0,0-1.53-.15L808.53,715l-6.91-3.92,7.77-2.81a1.92,1.92,0,0,0,1-.84l.07-.13a1.88,1.88,0,0,0-.71-2.56,1.9,1.9,0,0,0-1.53-.14L797,708.42l-6.18-3.5,0-3.14,6.13-3.6,11.32,3.65a1.88,1.88,0,0,0,2.19-2.74l-.08-.13a1.84,1.84,0,0,0-1-.82l-7.82-2.68,6.85-4,11.32,3.65a1.81,1.81,0,0,0,1.52-.17,1.87,1.87,0,0,0,.67-2.57l-.08-.12a1.85,1.85,0,0,0-1-.83L813,688.71l3.85-2.26a2.72,2.72,0,1,0-2.76-4.69L810.19,684l1.45-8.13a1.85,1.85,0,0,0-.23-1.28l-.07-.13a1.88,1.88,0,0,0-2.57-.66,1.85,1.85,0,0,0-.89,1.25l-2.3,11.67-6.85,4,1.45-8.13a1.87,1.87,0,0,0-.23-1.29l-.07-.12a1.88,1.88,0,0,0-3.46.58l-2.3,11.67-4.39,2.59-4.48-2.19,0-5.44,8.82-8a1.85,1.85,0,0,0,.62-1.41,1.88,1.88,0,0,0-1.89-1.86h-.15a1.94,1.94,0,0,0-1.22.46l-6.22,5.43-.07-7.94,8.82-8a1.88,1.88,0,0,0-1.27-3.28h-.15a1.9,1.9,0,0,0-1.22.47l-6.22,5.43,0-4.47a2.72,2.72,0,1,0-5.44,0l0,4.47-6.32-5.32a1.84,1.84,0,0,0-1.23-.44h-.15a1.88,1.88,0,0,0-1.86,1.89,1.92,1.92,0,0,0,.64,1.4l9,7.83.07,7.94-6.32-5.33a2,2,0,0,0-1.23-.44H772a1.89,1.89,0,0,0-1.86,1.9,1.94,1.94,0,0,0,.64,1.4l9,7.82,0,5.44-4.45,2.27-4.43-2.51-2.5-11.63a1.86,1.86,0,0,0-.91-1.24,1.88,1.88,0,0,0-2.56.71l-.07.13a1.9,1.9,0,0,0-.21,1.28l1.59,8.11-6.91-3.91-2.5-11.63a1.84,1.84,0,0,0-.91-1.24,1.87,1.87,0,0,0-2.56.71l-.07.13a1.84,1.84,0,0,0-.21,1.28l1.59,8.11-3.89-2.2a2.72,2.72,0,1,0-2.68,4.73l3.89,2.2L744.25,692a1.88,1.88,0,0,0-1,.84l-.07.13a1.88,1.88,0,0,0,.71,2.56,1.86,1.86,0,0,0,1.53.14l11.26-3.84,6.91,3.92-7.77,2.81a1.88,1.88,0,0,0-1,.84l-.07.13a1.88,1.88,0,0,0,2.24,2.7l11.25-3.84,6.19,3.5,0,3.14-6.13,3.6L757,705a1.81,1.81,0,0,0-1.52.17,1.87,1.87,0,0,0-.67,2.57l.08.12a1.85,1.85,0,0,0,1,.83l7.81,2.68-6.85,4-11.32-3.66a1.88,1.88,0,0,0-2.19,2.74l.08.13a1.79,1.79,0,0,0,1,.82l7.81,2.68-3.85,2.27a2.72,2.72,0,0,0,2.76,4.69l3.85-2.27-1.45,8.13a1.87,1.87,0,0,0,.23,1.29l.07.12a1.88,1.88,0,0,0,3.46-.58l2.3-11.67,6.85-4L765,724.2a1.84,1.84,0,0,0,.23,1.28l.07.13a1.88,1.88,0,0,0,3.46-.59l2.3-11.67,4.39-2.58L780,713l0,5.44-8.82,8a1.84,1.84,0,0,0-.62,1.4,1.87,1.87,0,0,0,1.89,1.86h.15a1.83,1.83,0,0,0,1.22-.46l6.22-5.43.07,8-8.82,8a1.88,1.88,0,0,0,1.27,3.27h.15a1.89,1.89,0,0,0,1.22-.46l6.22-5.43,0,4.47a2.72,2.72,0,1,0,5.44,0l0-4.46,6.32,5.32a1.89,1.89,0,0,0,1.23.44h.14a1.88,1.88,0,0,0,1.86-1.89,1.83,1.83,0,0,0-.64-1.4l-9-7.83-.07-7.94,6.32,5.32a1.84,1.84,0,0,0,1.23.44h.14a1.87,1.87,0,0,0,1.86-1.89,1.83,1.83,0,0,0-.64-1.4l-8.95-7.83-.05-5.44,4.45-2.26,4.43,2.51,2.5,11.63a1.88,1.88,0,0,0,3.47.53l.07-.13a1.93,1.93,0,0,0,.21-1.29l-1.59-8.11,6.91,3.92,2.5,11.63a1.88,1.88,0,0,0,3.47.53l.07-.13a1.93,1.93,0,0,0,.21-1.29l-1.59-8.1,3.89,2.2a2.72,2.72,0,1,0,2.68-4.73l-3.89-2.21L821,714.8a1.92,1.92,0,0,0,1-.84l.07-.13A1.87,1.87,0,0,0,821.32,711.28Zm-36-5.16-2.71,1.38-2.73-1.34,0-5.44,2.71-1.38,2.73,1.34Z" transform="translate(-244 -314.84)"/><path d="M891.32,991.28a1.87,1.87,0,0,0-1.53-.15L878.53,995l-6.91-3.92,7.77-2.81a1.92,1.92,0,0,0,1-.84l.07-.13a1.88,1.88,0,0,0-.71-2.56,1.9,1.9,0,0,0-1.53-.14L867,988.42l-6.18-3.5,0-3.14,6.13-3.6,11.32,3.65a1.88,1.88,0,0,0,2.19-2.74l-.08-.13a1.84,1.84,0,0,0-1-.82l-7.82-2.68,6.85-4,11.32,3.65a1.81,1.81,0,0,0,1.52-.17,1.87,1.87,0,0,0,.67-2.57l-.08-.12a1.85,1.85,0,0,0-1-.83L883,968.71l3.85-2.26a2.72,2.72,0,1,0-2.76-4.69L880.19,964l1.45-8.13a1.85,1.85,0,0,0-.23-1.28l-.07-.13a1.88,1.88,0,0,0-2.57-.66,1.85,1.85,0,0,0-.89,1.25l-2.3,11.67-6.85,4,1.45-8.13a1.87,1.87,0,0,0-.23-1.29l-.07-.12a1.88,1.88,0,0,0-3.46.58l-2.3,11.67-4.39,2.59-4.48-2.19,0-5.44,8.82-8a1.85,1.85,0,0,0,.62-1.41,1.88,1.88,0,0,0-1.89-1.86h-.15a1.94,1.94,0,0,0-1.22.46l-6.22,5.43-.07-7.94,8.82-8a1.88,1.88,0,0,0-1.27-3.28h-.15a1.9,1.9,0,0,0-1.22.47l-6.22,5.43,0-4.47a2.72,2.72,0,1,0-5.44,0l0,4.47-6.32-5.32a1.84,1.84,0,0,0-1.23-.44h-.15a1.88,1.88,0,0,0-1.86,1.89,1.92,1.92,0,0,0,.64,1.4l9,7.83.07,7.94-6.32-5.33a2,2,0,0,0-1.23-.44H842a1.89,1.89,0,0,0-1.86,1.9,1.94,1.94,0,0,0,.64,1.4l9,7.82,0,5.44-4.45,2.27-4.43-2.51-2.5-11.63a1.86,1.86,0,0,0-.91-1.24,1.88,1.88,0,0,0-2.56.71l-.07.13a1.9,1.9,0,0,0-.21,1.28l1.59,8.11-6.91-3.91-2.5-11.63a1.84,1.84,0,0,0-.91-1.24,1.87,1.87,0,0,0-2.56.71l-.07.13a1.84,1.84,0,0,0-.21,1.28l1.59,8.11-3.89-2.2a2.72,2.72,0,1,0-2.68,4.73l3.89,2.2L814.25,972a1.88,1.88,0,0,0-1,.84l-.07.13a1.88,1.88,0,0,0,.71,2.56,1.86,1.86,0,0,0,1.53.14l11.26-3.84,6.91,3.92-7.77,2.81a1.88,1.88,0,0,0-1,.84l-.07.13a1.88,1.88,0,0,0,2.24,2.7l11.25-3.84,6.19,3.5,0,3.14-6.13,3.6L827,985a1.81,1.81,0,0,0-1.52.17,1.87,1.87,0,0,0-.67,2.57l.08.12a1.85,1.85,0,0,0,1,.83l7.81,2.68-6.85,4-11.32-3.66a1.88,1.88,0,0,0-2.19,2.74l.08.13a1.79,1.79,0,0,0,1,.82l7.81,2.68-3.85,2.27a2.72,2.72,0,0,0,2.76,4.69l3.85-2.27-1.45,8.13a1.87,1.87,0,0,0,.23,1.29l.07.12a1.88,1.88,0,0,0,3.46-.58l2.3-11.67,6.85-4L835,1004.2a1.84,1.84,0,0,0,.23,1.28l.07.13a1.88,1.88,0,0,0,3.46-.59l2.3-11.67,4.39-2.58L850,993l0,5.44-8.82,8a1.84,1.84,0,0,0-.62,1.4,1.87,1.87,0,0,0,1.89,1.86h.15a1.83,1.83,0,0,0,1.22-.46l6.22-5.43.07,8-8.82,8a1.88,1.88,0,0,0,1.27,3.27h.15a1.89,1.89,0,0,0,1.22-.46l6.22-5.43,0,4.47a2.72,2.72,0,1,0,5.44,0l0-4.46,6.32,5.32a1.89,1.89,0,0,0,1.23.44h.14a1.88,1.88,0,0,0,1.86-1.89,1.83,1.83,0,0,0-.64-1.4l-9-7.83-.07-7.94,6.32,5.32a1.84,1.84,0,0,0,1.23.44h.14a1.87,1.87,0,0,0,1.86-1.89,1.83,1.83,0,0,0-.64-1.4l-8.95-7.83-.05-5.44,4.45-2.26,4.43,2.51,2.5,11.63a1.88,1.88,0,0,0,3.47.53l.07-.13a1.93,1.93,0,0,0,.21-1.29l-1.59-8.11,6.91,3.92,2.5,11.63a1.88,1.88,0,0,0,3.47.53l.07-.13a1.93,1.93,0,0,0,.21-1.29l-1.59-8.1,3.89,2.2a2.72,2.72,0,1,0,2.68-4.73l-3.89-2.21L891,994.8a1.92,1.92,0,0,0,1-.84l.07-.13A1.87,1.87,0,0,0,891.32,991.28Zm-36-5.16-2.71,1.38-2.73-1.34,0-5.44,2.71-1.38,2.73,1.34Z" transform="translate(-244 -314.84)"/><path d="M901.32,651.28a1.87,1.87,0,0,0-1.53-.15L888.53,655l-6.91-3.92,7.77-2.81a1.92,1.92,0,0,0,1-.84l.07-.13a1.88,1.88,0,0,0-.71-2.56,1.9,1.9,0,0,0-1.53-.14L877,648.42l-6.18-3.5,0-3.14,6.13-3.6,11.32,3.65a1.88,1.88,0,0,0,2.19-2.74l-.08-.13a1.84,1.84,0,0,0-1-.82l-7.82-2.68,6.85-4,11.32,3.65a1.81,1.81,0,0,0,1.52-.17,1.87,1.87,0,0,0,.67-2.57l-.08-.12a1.85,1.85,0,0,0-1-.83L893,628.71l3.85-2.26a2.72,2.72,0,1,0-2.76-4.69L890.19,624l1.45-8.13a1.85,1.85,0,0,0-.23-1.28l-.07-.13a1.88,1.88,0,0,0-2.57-.66,1.85,1.85,0,0,0-.89,1.25l-2.3,11.67-6.85,4,1.45-8.13a1.87,1.87,0,0,0-.23-1.29l-.07-.12a1.88,1.88,0,0,0-3.46.58l-2.3,11.67-4.39,2.59-4.48-2.19,0-5.44,8.82-8a1.85,1.85,0,0,0,.62-1.41,1.88,1.88,0,0,0-1.89-1.86h-.15a1.94,1.94,0,0,0-1.22.46l-6.22,5.43-.07-7.94,8.82-8a1.88,1.88,0,0,0-1.27-3.28h-.15a1.9,1.9,0,0,0-1.22.47l-6.22,5.43,0-4.47a2.72,2.72,0,1,0-5.44,0l0,4.47-6.32-5.32a1.84,1.84,0,0,0-1.23-.44h-.15a1.88,1.88,0,0,0-1.86,1.89,1.92,1.92,0,0,0,.64,1.4l9,7.83.07,7.94-6.32-5.33a2,2,0,0,0-1.23-.44H852a1.89,1.89,0,0,0-1.86,1.9,1.94,1.94,0,0,0,.64,1.4l9,7.82,0,5.44-4.45,2.27-4.43-2.51-2.5-11.63a1.86,1.86,0,0,0-.91-1.24,1.88,1.88,0,0,0-2.56.71l-.07.13a1.9,1.9,0,0,0-.21,1.28l1.59,8.11-6.91-3.91-2.5-11.63a1.84,1.84,0,0,0-.91-1.24,1.87,1.87,0,0,0-2.56.71l-.07.13a1.84,1.84,0,0,0-.21,1.28l1.59,8.11-3.89-2.2a2.72,2.72,0,1,0-2.68,4.73l3.89,2.2L824.25,632a1.88,1.88,0,0,0-1,.84l-.07.13a1.88,1.88,0,0,0,.71,2.56,1.86,1.86,0,0,0,1.53.14l11.26-3.84,6.91,3.92-7.77,2.81a1.88,1.88,0,0,0-1,.84l-.07.13a1.88,1.88,0,0,0,2.24,2.7l11.25-3.84,6.19,3.5,0,3.14-6.13,3.6L837,645a1.81,1.81,0,0,0-1.52.17,1.87,1.87,0,0,0-.67,2.57l.08.12a1.85,1.85,0,0,0,1,.83l7.81,2.68-6.85,4-11.32-3.66a1.88,1.88,0,0,0-2.19,2.74l.08.13a1.79,1.79,0,0,0,1,.82l7.81,2.68-3.85,2.27a2.72,2.72,0,0,0,2.76,4.69l3.85-2.27-1.45,8.13a1.87,1.87,0,0,0,.23,1.29l.07.12a1.88,1.88,0,0,0,3.46-.58l2.3-11.67,6.85-4L845,664.2a1.84,1.84,0,0,0,.23,1.28l.07.13a1.88,1.88,0,0,0,3.46-.59l2.3-11.67,4.39-2.58L860,653l0,5.44-8.82,8a1.84,1.84,0,0,0-.62,1.4,1.87,1.87,0,0,0,1.89,1.86h.15a1.83,1.83,0,0,0,1.22-.46l6.22-5.43.07,8-8.82,8a1.88,1.88,0,0,0,1.27,3.27h.15a1.89,1.89,0,0,0,1.22-.46l6.22-5.43,0,4.47a2.72,2.72,0,1,0,5.44,0l0-4.46,6.32,5.32a1.89,1.89,0,0,0,1.23.44h.14a1.88,1.88,0,0,0,1.86-1.89,1.83,1.83,0,0,0-.64-1.4l-9-7.83-.07-7.94,6.32,5.32a1.84,1.84,0,0,0,1.23.44h.14a1.87,1.87,0,0,0,1.86-1.89,1.83,1.83,0,0,0-.64-1.4l-8.95-7.83-.05-5.44,4.45-2.26,4.43,2.51,2.5,11.63a1.88,1.88,0,0,0,3.47.53l.07-.13a1.93,1.93,0,0,0,.21-1.29l-1.59-8.11,6.91,3.92,2.5,11.63a1.88,1.88,0,0,0,3.47.53l.07-.13a1.93,1.93,0,0,0,.21-1.29l-1.59-8.1,3.89,2.2a2.72,2.72,0,1,0,2.68-4.73l-3.89-2.21L901,654.8a1.92,1.92,0,0,0,1-.84l.07-.13A1.87,1.87,0,0,0,901.32,651.28Zm-36-5.16-2.71,1.38-2.73-1.34,0-5.44,2.71-1.38,2.73,1.34Z" transform="translate(-244 -314.84)"/><path d="M911.32,771.28a1.87,1.87,0,0,0-1.53-.15L898.53,775l-6.91-3.92,7.77-2.81a1.92,1.92,0,0,0,1-.84l.07-.13a1.88,1.88,0,0,0-.71-2.56,1.9,1.9,0,0,0-1.53-.14L887,768.42l-6.18-3.5,0-3.14,6.13-3.6,11.32,3.65a1.88,1.88,0,0,0,2.19-2.74l-.08-.13a1.84,1.84,0,0,0-1-.82l-7.82-2.68,6.85-4,11.32,3.65a1.81,1.81,0,0,0,1.52-.17,1.87,1.87,0,0,0,.67-2.57l-.08-.12a1.85,1.85,0,0,0-1-.83L903,748.71l3.85-2.26a2.72,2.72,0,1,0-2.76-4.69L900.19,744l1.45-8.13a1.85,1.85,0,0,0-.23-1.28l-.07-.13a1.88,1.88,0,0,0-2.57-.66,1.85,1.85,0,0,0-.89,1.25l-2.3,11.67-6.85,4,1.45-8.13a1.87,1.87,0,0,0-.23-1.29l-.07-.12a1.88,1.88,0,0,0-3.46.58l-2.3,11.67-4.39,2.59-4.48-2.19,0-5.44,8.82-8a1.85,1.85,0,0,0,.62-1.41,1.88,1.88,0,0,0-1.89-1.86h-.15a1.94,1.94,0,0,0-1.22.46l-6.22,5.43-.07-7.94,8.82-8a1.88,1.88,0,0,0-1.27-3.28h-.15a1.9,1.9,0,0,0-1.22.47l-6.22,5.43,0-4.47a2.72,2.72,0,1,0-5.44,0l0,4.47-6.32-5.32a1.84,1.84,0,0,0-1.23-.44h-.15a1.88,1.88,0,0,0-1.86,1.89,1.92,1.92,0,0,0,.64,1.4l9,7.83.07,7.94-6.32-5.33a2,2,0,0,0-1.23-.44H862a1.89,1.89,0,0,0-1.86,1.9,1.94,1.94,0,0,0,.64,1.4l9,7.82,0,5.44-4.45,2.27-4.43-2.51-2.5-11.63a1.86,1.86,0,0,0-.91-1.24,1.88,1.88,0,0,0-2.56.71l-.07.13a1.9,1.9,0,0,0-.21,1.28l1.59,8.11-6.91-3.91-2.5-11.63a1.84,1.84,0,0,0-.91-1.24,1.87,1.87,0,0,0-2.56.71l-.07.13a1.84,1.84,0,0,0-.21,1.28l1.59,8.11-3.89-2.2a2.72,2.72,0,1,0-2.68,4.73l3.89,2.2L834.25,752a1.88,1.88,0,0,0-1,.84l-.07.13a1.88,1.88,0,0,0,.71,2.56,1.86,1.86,0,0,0,1.53.14l11.26-3.84,6.91,3.92-7.77,2.81a1.88,1.88,0,0,0-1,.84l-.07.13a1.88,1.88,0,0,0,2.24,2.7l11.25-3.84,6.19,3.5,0,3.14-6.13,3.6L847,765a1.81,1.81,0,0,0-1.52.17,1.87,1.87,0,0,0-.67,2.57l.08.12a1.85,1.85,0,0,0,1,.83l7.81,2.68-6.85,4-11.32-3.66a1.88,1.88,0,0,0-2.19,2.74l.08.13a1.79,1.79,0,0,0,1,.82l7.81,2.68-3.85,2.27a2.72,2.72,0,0,0,2.76,4.69l3.85-2.27-1.45,8.13a1.87,1.87,0,0,0,.23,1.29l.07.12a1.88,1.88,0,0,0,3.46-.58l2.3-11.67,6.85-4L855,784.2a1.84,1.84,0,0,0,.23,1.28l.07.13a1.88,1.88,0,0,0,3.46-.59l2.3-11.67,4.39-2.58L870,773l0,5.44-8.82,8a1.84,1.84,0,0,0-.62,1.4,1.87,1.87,0,0,0,1.89,1.86h.15a1.83,1.83,0,0,0,1.22-.46l6.22-5.43.07,8-8.82,8a1.88,1.88,0,0,0,1.27,3.27h.15a1.89,1.89,0,0,0,1.22-.46l6.22-5.43,0,4.47a2.72,2.72,0,1,0,5.44,0l0-4.46,6.32,5.32a1.89,1.89,0,0,0,1.23.44h.14a1.88,1.88,0,0,0,1.86-1.89,1.83,1.83,0,0,0-.64-1.4l-9-7.83-.07-7.94,6.32,5.32a1.84,1.84,0,0,0,1.23.44h.14a1.87,1.87,0,0,0,1.86-1.89,1.83,1.83,0,0,0-.64-1.4l-8.95-7.83-.05-5.44,4.45-2.26,4.43,2.51,2.5,11.63a1.88,1.88,0,0,0,3.47.53l.07-.13a1.93,1.93,0,0,0,.21-1.29l-1.59-8.11,6.91,3.92,2.5,11.63a1.88,1.88,0,0,0,3.47.53l.07-.13a1.93,1.93,0,0,0,.21-1.29l-1.59-8.1,3.89,2.2a2.72,2.72,0,1,0,2.68-4.73l-3.89-2.21L911,774.8a1.92,1.92,0,0,0,1-.84l.07-.13A1.87,1.87,0,0,0,911.32,771.28Zm-36-5.16-2.71,1.38-2.73-1.34,0-5.44,2.71-1.38,2.73,1.34Z" transform="translate(-244 -314.84)"/><path d="M901.32,881.28a1.87,1.87,0,0,0-1.53-.15L888.53,885l-6.91-3.92,7.77-2.81a1.92,1.92,0,0,0,1-.84l.07-.13a1.88,1.88,0,0,0-.71-2.56,1.9,1.9,0,0,0-1.53-.14L877,878.42l-6.18-3.5,0-3.14,6.13-3.6,11.32,3.65a1.88,1.88,0,0,0,2.19-2.74l-.08-.13a1.84,1.84,0,0,0-1-.82l-7.82-2.68,6.85-4,11.32,3.65a1.81,1.81,0,0,0,1.52-.17,1.87,1.87,0,0,0,.67-2.57l-.08-.12a1.85,1.85,0,0,0-1-.83L893,858.71l3.85-2.26a2.72,2.72,0,1,0-2.76-4.69L890.19,854l1.45-8.13a1.85,1.85,0,0,0-.23-1.28l-.07-.13a1.88,1.88,0,0,0-2.57-.66,1.85,1.85,0,0,0-.89,1.25l-2.3,11.67-6.85,4,1.45-8.13a1.87,1.87,0,0,0-.23-1.29l-.07-.12a1.88,1.88,0,0,0-3.46.58l-2.3,11.67-4.39,2.59-4.48-2.19,0-5.44,8.82-8a1.85,1.85,0,0,0,.62-1.41,1.88,1.88,0,0,0-1.89-1.86h-.15a1.94,1.94,0,0,0-1.22.46l-6.22,5.43-.07-7.94,8.82-8a1.88,1.88,0,0,0-1.27-3.28h-.15a1.9,1.9,0,0,0-1.22.47l-6.22,5.43,0-4.47a2.72,2.72,0,1,0-5.44,0l0,4.47-6.32-5.32a1.84,1.84,0,0,0-1.23-.44h-.15a1.88,1.88,0,0,0-1.86,1.89,1.92,1.92,0,0,0,.64,1.4l9,7.83.07,7.94-6.32-5.33a2,2,0,0,0-1.23-.44H852a1.89,1.89,0,0,0-1.86,1.9,1.94,1.94,0,0,0,.64,1.4l9,7.82,0,5.44-4.45,2.27-4.43-2.51-2.5-11.63a1.86,1.86,0,0,0-.91-1.24,1.88,1.88,0,0,0-2.56.71l-.07.13a1.9,1.9,0,0,0-.21,1.28l1.59,8.11-6.91-3.91-2.5-11.63a1.84,1.84,0,0,0-.91-1.24,1.87,1.87,0,0,0-2.56.71l-.07.13a1.84,1.84,0,0,0-.21,1.28l1.59,8.11-3.89-2.2a2.72,2.72,0,1,0-2.68,4.73l3.89,2.2L824.25,862a1.88,1.88,0,0,0-1,.84l-.07.13a1.88,1.88,0,0,0,.71,2.56,1.86,1.86,0,0,0,1.53.14l11.26-3.84,6.91,3.92-7.77,2.81a1.88,1.88,0,0,0-1,.84l-.07.13a1.88,1.88,0,0,0,2.24,2.7l11.25-3.84,6.19,3.5,0,3.14-6.13,3.6L837,875a1.81,1.81,0,0,0-1.52.17,1.87,1.87,0,0,0-.67,2.57l.08.12a1.85,1.85,0,0,0,1,.83l7.81,2.68-6.85,4-11.32-3.66a1.88,1.88,0,0,0-2.19,2.74l.08.13a1.79,1.79,0,0,0,1,.82l7.81,2.68-3.85,2.27a2.72,2.72,0,0,0,2.76,4.69l3.85-2.27-1.45,8.13a1.87,1.87,0,0,0,.23,1.29l.07.12a1.88,1.88,0,0,0,3.46-.58l2.3-11.67,6.85-4L845,894.2a1.84,1.84,0,0,0,.23,1.28l.07.13a1.88,1.88,0,0,0,3.46-.59l2.3-11.67,4.39-2.58L860,883l0,5.44-8.82,8a1.84,1.84,0,0,0-.62,1.4,1.87,1.87,0,0,0,1.89,1.86h.15a1.83,1.83,0,0,0,1.22-.46l6.22-5.43.07,8-8.82,8a1.88,1.88,0,0,0,1.27,3.27h.15a1.89,1.89,0,0,0,1.22-.46l6.22-5.43,0,4.47a2.72,2.72,0,1,0,5.44,0l0-4.46,6.32,5.32a1.89,1.89,0,0,0,1.23.44h.14a1.88,1.88,0,0,0,1.86-1.89,1.83,1.83,0,0,0-.64-1.4l-9-7.83-.07-7.94,6.32,5.32a1.84,1.84,0,0,0,1.23.44h.14a1.87,1.87,0,0,0,1.86-1.89,1.83,1.83,0,0,0-.64-1.4l-8.95-7.83-.05-5.44,4.45-2.26,4.43,2.51,2.5,11.63a1.88,1.88,0,0,0,3.47.53l.07-.13a1.93,1.93,0,0,0,.21-1.29l-1.59-8.11,6.91,3.92,2.5,11.63a1.88,1.88,0,0,0,3.47.53l.07-.13a1.93,1.93,0,0,0,.21-1.29l-1.59-8.1,3.89,2.2a2.72,2.72,0,1,0,2.68-4.73l-3.89-2.21L901,884.8a1.92,1.92,0,0,0,1-.84l.07-.13A1.87,1.87,0,0,0,901.32,881.28Zm-36-5.16-2.71,1.38-2.73-1.34,0-5.44,2.71-1.38,2.73,1.34Z" transform="translate(-244 -314.84)"/><path d="M991.32,581.28a1.87,1.87,0,0,0-1.53-.15L978.53,585l-6.91-3.92,7.77-2.81a1.92,1.92,0,0,0,1-.84l.07-.13a1.88,1.88,0,0,0-.71-2.56,1.9,1.9,0,0,0-1.53-.14L967,578.42l-6.18-3.5,0-3.14,6.13-3.6,11.32,3.65a1.88,1.88,0,0,0,2.19-2.74l-.08-.13a1.84,1.84,0,0,0-1-.82l-7.82-2.68,6.85-4,11.32,3.65a1.81,1.81,0,0,0,1.52-.17,1.87,1.87,0,0,0,.67-2.57l-.08-.12a1.85,1.85,0,0,0-1-.83L983,558.71l3.85-2.26a2.72,2.72,0,1,0-2.76-4.69L980.19,554l1.45-8.13a1.85,1.85,0,0,0-.23-1.28l-.07-.13a1.88,1.88,0,0,0-2.57-.66,1.85,1.85,0,0,0-.89,1.25l-2.3,11.67-6.85,4,1.45-8.13a1.87,1.87,0,0,0-.23-1.29l-.07-.12a1.88,1.88,0,0,0-3.46.58l-2.3,11.67-4.39,2.59-4.48-2.19,0-5.44,8.82-8a1.85,1.85,0,0,0,.62-1.41,1.88,1.88,0,0,0-1.89-1.86h-.15a1.94,1.94,0,0,0-1.22.46l-6.22,5.43-.07-7.94,8.82-8a1.88,1.88,0,0,0-1.27-3.28h-.15a1.9,1.9,0,0,0-1.22.47l-6.22,5.43,0-4.47a2.72,2.72,0,1,0-5.44,0l0,4.47-6.32-5.32a1.84,1.84,0,0,0-1.23-.44h-.15a1.88,1.88,0,0,0-1.86,1.89,1.92,1.92,0,0,0,.64,1.4l9,7.83.07,7.94-6.32-5.33a2,2,0,0,0-1.23-.44H942a1.89,1.89,0,0,0-1.86,1.9,1.94,1.94,0,0,0,.64,1.4l9,7.82,0,5.44-4.45,2.27-4.43-2.51-2.5-11.63a1.86,1.86,0,0,0-.91-1.24,1.88,1.88,0,0,0-2.56.71l-.07.13a1.9,1.9,0,0,0-.21,1.28l1.59,8.11-6.91-3.91-2.5-11.63a1.84,1.84,0,0,0-.91-1.24,1.87,1.87,0,0,0-2.56.71l-.07.13a1.84,1.84,0,0,0-.21,1.28l1.59,8.11-3.89-2.2a2.72,2.72,0,1,0-2.68,4.73l3.89,2.2L914.25,562a1.88,1.88,0,0,0-1,.84l-.07.13a1.88,1.88,0,0,0,.71,2.56,1.86,1.86,0,0,0,1.53.14l11.26-3.84,6.91,3.92-7.77,2.81a1.88,1.88,0,0,0-1,.84l-.07.13a1.88,1.88,0,0,0,2.24,2.7l11.25-3.84,6.19,3.5,0,3.14-6.13,3.6L927,575a1.81,1.81,0,0,0-1.52.17,1.87,1.87,0,0,0-.67,2.57l.08.12a1.85,1.85,0,0,0,1,.83l7.81,2.68-6.85,4-11.32-3.66a1.88,1.88,0,0,0-2.19,2.74l.08.13a1.79,1.79,0,0,0,1,.82l7.81,2.68-3.85,2.27a2.72,2.72,0,0,0,2.76,4.69l3.85-2.27-1.45,8.13a1.87,1.87,0,0,0,.23,1.29l.07.12a1.88,1.88,0,0,0,3.46-.58l2.3-11.67,6.85-4L935,594.2a1.84,1.84,0,0,0,.23,1.28l.07.13a1.88,1.88,0,0,0,3.46-.59l2.3-11.67,4.39-2.58L950,583l0,5.44-8.82,8a1.84,1.84,0,0,0-.62,1.4,1.87,1.87,0,0,0,1.89,1.86h.15a1.83,1.83,0,0,0,1.22-.46l6.22-5.43.07,8-8.82,8a1.88,1.88,0,0,0,1.27,3.27h.15a1.89,1.89,0,0,0,1.22-.46l6.22-5.43,0,4.47a2.72,2.72,0,1,0,5.44,0l0-4.46,6.32,5.32a1.89,1.89,0,0,0,1.23.44h.14a1.88,1.88,0,0,0,1.86-1.89,1.83,1.83,0,0,0-.64-1.4l-9-7.83-.07-7.94,6.32,5.32a1.84,1.84,0,0,0,1.23.44h.14a1.87,1.87,0,0,0,1.86-1.89,1.83,1.83,0,0,0-.64-1.4l-8.95-7.83-.05-5.44,4.45-2.26,4.43,2.51,2.5,11.63a1.88,1.88,0,0,0,3.47.53l.07-.13a1.93,1.93,0,0,0,.21-1.29l-1.59-8.11,6.91,3.92,2.5,11.63a1.88,1.88,0,0,0,3.47.53l.07-.13a1.93,1.93,0,0,0,.21-1.29l-1.59-8.1,3.89,2.2a2.72,2.72,0,1,0,2.68-4.73l-3.89-2.21L991,584.8a1.92,1.92,0,0,0,1-.84l.07-.13A1.87,1.87,0,0,0,991.32,581.28Zm-36-5.16-2.71,1.38-2.73-1.34,0-5.44,2.71-1.38,2.73,1.34Z" transform="translate(-244 -314.84)"/><path d="M981.32,701.28a1.87,1.87,0,0,0-1.53-.15L968.53,705l-6.91-3.92,7.77-2.81a1.92,1.92,0,0,0,1-.84l.07-.13a1.88,1.88,0,0,0-.71-2.56,1.9,1.9,0,0,0-1.53-.14L957,698.42l-6.18-3.5,0-3.14,6.13-3.6,11.32,3.65a1.88,1.88,0,0,0,2.19-2.74l-.08-.13a1.84,1.84,0,0,0-1-.82l-7.82-2.68,6.85-4,11.32,3.65a1.81,1.81,0,0,0,1.52-.17,1.87,1.87,0,0,0,.67-2.57l-.08-.12a1.85,1.85,0,0,0-1-.83L973,678.71l3.85-2.26a2.72,2.72,0,1,0-2.76-4.69L970.19,674l1.45-8.13a1.85,1.85,0,0,0-.23-1.28l-.07-.13a1.88,1.88,0,0,0-2.57-.66,1.85,1.85,0,0,0-.89,1.25l-2.3,11.67-6.85,4,1.45-8.13a1.87,1.87,0,0,0-.23-1.29l-.07-.12a1.88,1.88,0,0,0-3.46.58l-2.3,11.67-4.39,2.59-4.48-2.19,0-5.44,8.82-8a1.85,1.85,0,0,0,.62-1.41,1.88,1.88,0,0,0-1.89-1.86h-.15a1.94,1.94,0,0,0-1.22.46l-6.22,5.43-.07-7.94,8.82-8a1.88,1.88,0,0,0-1.27-3.28h-.15a1.9,1.9,0,0,0-1.22.47l-6.22,5.43,0-4.47a2.72,2.72,0,1,0-5.44,0l0,4.47-6.32-5.32a1.84,1.84,0,0,0-1.23-.44h-.15a1.88,1.88,0,0,0-1.86,1.89,1.92,1.92,0,0,0,.64,1.4l9,7.83.07,7.94-6.32-5.33a2,2,0,0,0-1.23-.44H932a1.89,1.89,0,0,0-1.86,1.9,1.94,1.94,0,0,0,.64,1.4l9,7.82,0,5.44-4.45,2.27-4.43-2.51-2.5-11.63a1.86,1.86,0,0,0-.91-1.24,1.88,1.88,0,0,0-2.56.71l-.07.13a1.9,1.9,0,0,0-.21,1.28l1.59,8.11-6.91-3.91-2.5-11.63a1.84,1.84,0,0,0-.91-1.24,1.87,1.87,0,0,0-2.56.71l-.07.13a1.84,1.84,0,0,0-.21,1.28l1.59,8.11-3.89-2.2a2.72,2.72,0,1,0-2.68,4.73l3.89,2.2L904.25,682a1.88,1.88,0,0,0-1,.84l-.07.13a1.88,1.88,0,0,0,.71,2.56,1.86,1.86,0,0,0,1.53.14l11.26-3.84,6.91,3.92-7.77,2.81a1.88,1.88,0,0,0-1,.84l-.07.13a1.88,1.88,0,0,0,2.24,2.7l11.25-3.84,6.19,3.5,0,3.14-6.13,3.6L917,695a1.81,1.81,0,0,0-1.52.17,1.87,1.87,0,0,0-.67,2.57l.08.12a1.85,1.85,0,0,0,1,.83l7.81,2.68-6.85,4-11.32-3.66a1.88,1.88,0,0,0-2.19,2.74l.08.13a1.79,1.79,0,0,0,1,.82l7.81,2.68-3.85,2.27a2.72,2.72,0,0,0,2.76,4.69l3.85-2.27-1.45,8.13a1.87,1.87,0,0,0,.23,1.29l.07.12a1.88,1.88,0,0,0,3.46-.58l2.3-11.67,6.85-4L925,714.2a1.84,1.84,0,0,0,.23,1.28l.07.13a1.88,1.88,0,0,0,3.46-.59l2.3-11.67,4.39-2.58L940,703l0,5.44-8.82,8a1.84,1.84,0,0,0-.62,1.4,1.87,1.87,0,0,0,1.89,1.86h.15a1.83,1.83,0,0,0,1.22-.46l6.22-5.43.07,8-8.82,8a1.88,1.88,0,0,0,1.27,3.27h.15a1.89,1.89,0,0,0,1.22-.46l6.22-5.43,0,4.47a2.72,2.72,0,1,0,5.44,0l0-4.46,6.32,5.32a1.89,1.89,0,0,0,1.23.44h.14a1.88,1.88,0,0,0,1.86-1.89,1.83,1.83,0,0,0-.64-1.4l-9-7.83-.07-7.94,6.32,5.32a1.84,1.84,0,0,0,1.23.44h.14a1.87,1.87,0,0,0,1.86-1.89,1.83,1.83,0,0,0-.64-1.4l-8.95-7.83-.05-5.44,4.45-2.26,4.43,2.51,2.5,11.63a1.88,1.88,0,0,0,3.47.53l.07-.13a1.93,1.93,0,0,0,.21-1.29l-1.59-8.11,6.91,3.92,2.5,11.63a1.88,1.88,0,0,0,3.47.53l.07-.13a1.93,1.93,0,0,0,.21-1.29l-1.59-8.1,3.89,2.2a2.72,2.72,0,1,0,2.68-4.73l-3.89-2.21L981,704.8a1.92,1.92,0,0,0,1-.84l.07-.13A1.87,1.87,0,0,0,981.32,701.28Zm-36-5.16-2.71,1.38-2.73-1.34,0-5.44,2.71-1.38,2.73,1.34Z" transform="translate(-244 -314.84)"/><path d="M981.32,821.28a1.87,1.87,0,0,0-1.53-.15L968.53,825l-6.91-3.92,7.77-2.81a1.92,1.92,0,0,0,1-.84l.07-.13a1.88,1.88,0,0,0-.71-2.56,1.9,1.9,0,0,0-1.53-.14L957,818.42l-6.18-3.5,0-3.14,6.13-3.6,11.32,3.65a1.88,1.88,0,0,0,2.19-2.74l-.08-.13a1.84,1.84,0,0,0-1-.82l-7.82-2.68,6.85-4,11.32,3.65a1.81,1.81,0,0,0,1.52-.17,1.87,1.87,0,0,0,.67-2.57l-.08-.12a1.85,1.85,0,0,0-1-.83L973,798.71l3.85-2.26a2.72,2.72,0,1,0-2.76-4.69L970.19,794l1.45-8.13a1.85,1.85,0,0,0-.23-1.28l-.07-.13a1.88,1.88,0,0,0-2.57-.66,1.85,1.85,0,0,0-.89,1.25l-2.3,11.67-6.85,4,1.45-8.13a1.87,1.87,0,0,0-.23-1.29l-.07-.12a1.88,1.88,0,0,0-3.46.58l-2.3,11.67-4.39,2.59-4.48-2.19,0-5.44,8.82-8a1.85,1.85,0,0,0,.62-1.41,1.88,1.88,0,0,0-1.89-1.86h-.15a1.94,1.94,0,0,0-1.22.46l-6.22,5.43-.07-7.94,8.82-8a1.88,1.88,0,0,0-1.27-3.28h-.15a1.9,1.9,0,0,0-1.22.47l-6.22,5.43,0-4.47a2.72,2.72,0,1,0-5.44,0l0,4.47-6.32-5.32a1.84,1.84,0,0,0-1.23-.44h-.15a1.88,1.88,0,0,0-1.86,1.89,1.92,1.92,0,0,0,.64,1.4l9,7.83.07,7.94-6.32-5.33a2,2,0,0,0-1.23-.44H932a1.89,1.89,0,0,0-1.86,1.9,1.94,1.94,0,0,0,.64,1.4l9,7.82,0,5.44-4.45,2.27-4.43-2.51-2.5-11.63a1.86,1.86,0,0,0-.91-1.24,1.88,1.88,0,0,0-2.56.71l-.07.13a1.9,1.9,0,0,0-.21,1.28l1.59,8.11-6.91-3.91-2.5-11.63a1.84,1.84,0,0,0-.91-1.24,1.87,1.87,0,0,0-2.56.71l-.07.13a1.84,1.84,0,0,0-.21,1.28l1.59,8.11-3.89-2.2a2.72,2.72,0,1,0-2.68,4.73l3.89,2.2L904.25,802a1.88,1.88,0,0,0-1,.84l-.07.13a1.88,1.88,0,0,0,.71,2.56,1.86,1.86,0,0,0,1.53.14l11.26-3.84,6.91,3.92-7.77,2.81a1.88,1.88,0,0,0-1,.84l-.07.13a1.88,1.88,0,0,0,2.24,2.7l11.25-3.84,6.19,3.5,0,3.14-6.13,3.6L917,815a1.81,1.81,0,0,0-1.52.17,1.87,1.87,0,0,0-.67,2.57l.08.12a1.85,1.85,0,0,0,1,.83l7.81,2.68-6.85,4-11.32-3.66a1.88,1.88,0,0,0-2.19,2.74l.08.13a1.79,1.79,0,0,0,1,.82l7.81,2.68-3.85,2.27a2.72,2.72,0,0,0,2.76,4.69l3.85-2.27-1.45,8.13a1.87,1.87,0,0,0,.23,1.29l.07.12a1.88,1.88,0,0,0,3.46-.58l2.3-11.67,6.85-4L925,834.2a1.84,1.84,0,0,0,.23,1.28l.07.13a1.88,1.88,0,0,0,3.46-.59l2.3-11.67,4.39-2.58L940,823l0,5.44-8.82,8a1.84,1.84,0,0,0-.62,1.4,1.87,1.87,0,0,0,1.89,1.86h.15a1.83,1.83,0,0,0,1.22-.46l6.22-5.43.07,8-8.82,8a1.88,1.88,0,0,0,1.27,3.27h.15a1.89,1.89,0,0,0,1.22-.46l6.22-5.43,0,4.47a2.72,2.72,0,1,0,5.44,0l0-4.46,6.32,5.32a1.89,1.89,0,0,0,1.23.44h.14a1.88,1.88,0,0,0,1.86-1.89,1.83,1.83,0,0,0-.64-1.4l-9-7.83-.07-7.94,6.32,5.32a1.84,1.84,0,0,0,1.23.44h.14a1.87,1.87,0,0,0,1.86-1.89,1.83,1.83,0,0,0-.64-1.4l-8.95-7.83-.05-5.44,4.45-2.26,4.43,2.51,2.5,11.63a1.88,1.88,0,0,0,3.47.53l.07-.13a1.93,1.93,0,0,0,.21-1.29l-1.59-8.11,6.91,3.92,2.5,11.63a1.88,1.88,0,0,0,3.47.53l.07-.13a1.93,1.93,0,0,0,.21-1.29l-1.59-8.1,3.89,2.2a2.72,2.72,0,1,0,2.68-4.73l-3.89-2.21L981,824.8a1.92,1.92,0,0,0,1-.84l.07-.13A1.87,1.87,0,0,0,981.32,821.28Zm-36-5.16-2.71,1.38-2.73-1.34,0-5.44,2.71-1.38,2.73,1.34Z" transform="translate(-244 -314.84)"/><path d="M971.32,951.28a1.87,1.87,0,0,0-1.53-.15L958.53,955l-6.91-3.92,7.77-2.81a1.92,1.92,0,0,0,1-.84l.07-.13a1.88,1.88,0,0,0-.71-2.56,1.9,1.9,0,0,0-1.53-.14L947,948.42l-6.18-3.5,0-3.14,6.13-3.6,11.32,3.65a1.88,1.88,0,0,0,2.19-2.74l-.08-.13a1.84,1.84,0,0,0-1-.82l-7.82-2.68,6.85-4,11.32,3.65a1.81,1.81,0,0,0,1.52-.17,1.87,1.87,0,0,0,.67-2.57l-.08-.12a1.85,1.85,0,0,0-1-.83L963,928.71l3.85-2.26a2.72,2.72,0,1,0-2.76-4.69L960.19,924l1.45-8.13a1.85,1.85,0,0,0-.23-1.28l-.07-.13a1.88,1.88,0,0,0-2.57-.66,1.85,1.85,0,0,0-.89,1.25l-2.3,11.67-6.85,4,1.45-8.13a1.87,1.87,0,0,0-.23-1.29l-.07-.12a1.88,1.88,0,0,0-3.46.58l-2.3,11.67-4.39,2.59-4.48-2.19,0-5.44,8.82-8a1.85,1.85,0,0,0,.62-1.41,1.88,1.88,0,0,0-1.89-1.86h-.15a1.94,1.94,0,0,0-1.22.46l-6.22,5.43-.07-7.94,8.82-8a1.88,1.88,0,0,0-1.27-3.28h-.15a1.9,1.9,0,0,0-1.22.47l-6.22,5.43,0-4.47a2.72,2.72,0,1,0-5.44,0l0,4.47-6.32-5.32a1.84,1.84,0,0,0-1.23-.44h-.15a1.88,1.88,0,0,0-1.86,1.89,1.92,1.92,0,0,0,.64,1.4l9,7.83.07,7.94-6.32-5.33a2,2,0,0,0-1.23-.44H922a1.89,1.89,0,0,0-1.86,1.9,1.94,1.94,0,0,0,.64,1.4l9,7.82,0,5.44-4.45,2.27-4.43-2.51-2.5-11.63a1.86,1.86,0,0,0-.91-1.24,1.88,1.88,0,0,0-2.56.71l-.07.13a1.9,1.9,0,0,0-.21,1.28l1.59,8.11-6.91-3.91-2.5-11.63a1.84,1.84,0,0,0-.91-1.24,1.87,1.87,0,0,0-2.56.71l-.07.13a1.84,1.84,0,0,0-.21,1.28l1.59,8.11-3.89-2.2a2.72,2.72,0,1,0-2.68,4.73l3.89,2.2L894.25,932a1.88,1.88,0,0,0-1,.84l-.07.13a1.88,1.88,0,0,0,.71,2.56,1.86,1.86,0,0,0,1.53.14l11.26-3.84,6.91,3.92-7.77,2.81a1.88,1.88,0,0,0-1,.84l-.07.13a1.88,1.88,0,0,0,2.24,2.7l11.25-3.84,6.19,3.5,0,3.14-6.13,3.6L907,945a1.81,1.81,0,0,0-1.52.17,1.87,1.87,0,0,0-.67,2.57l.08.12a1.85,1.85,0,0,0,1,.83l7.81,2.68-6.85,4-11.32-3.66a1.88,1.88,0,0,0-2.19,2.74l.08.13a1.79,1.79,0,0,0,1,.82l7.81,2.68-3.85,2.27a2.72,2.72,0,0,0,2.76,4.69l3.85-2.27-1.45,8.13a1.87,1.87,0,0,0,.23,1.29l.07.12a1.88,1.88,0,0,0,3.46-.58l2.3-11.67,6.85-4L915,964.2a1.84,1.84,0,0,0,.23,1.28l.07.13a1.88,1.88,0,0,0,3.46-.59l2.3-11.67,4.39-2.58L930,953l0,5.44-8.82,8a1.84,1.84,0,0,0-.62,1.4,1.87,1.87,0,0,0,1.89,1.86h.15a1.83,1.83,0,0,0,1.22-.46l6.22-5.43.07,8-8.82,8a1.88,1.88,0,0,0,1.27,3.27h.15a1.89,1.89,0,0,0,1.22-.46l6.22-5.43,0,4.47a2.72,2.72,0,1,0,5.44,0l0-4.46,6.32,5.32a1.89,1.89,0,0,0,1.23.44h.14a1.88,1.88,0,0,0,1.86-1.89,1.83,1.83,0,0,0-.64-1.4l-9-7.83-.07-7.94,6.32,5.32a1.84,1.84,0,0,0,1.23.44h.14a1.87,1.87,0,0,0,1.86-1.89,1.83,1.83,0,0,0-.64-1.4l-8.95-7.83-.05-5.44,4.45-2.26,4.43,2.51,2.5,11.63a1.88,1.88,0,0,0,3.47.53l.07-.13a1.93,1.93,0,0,0,.21-1.29l-1.59-8.11,6.91,3.92,2.5,11.63a1.88,1.88,0,0,0,3.47.53l.07-.13a1.93,1.93,0,0,0,.21-1.29l-1.59-8.1,3.89,2.2a2.72,2.72,0,1,0,2.68-4.73l-3.89-2.21L971,954.8a1.92,1.92,0,0,0,1-.84l.07-.13A1.87,1.87,0,0,0,971.32,951.28Zm-36-5.16-2.71,1.38-2.73-1.34,0-5.44,2.71-1.38,2.73,1.34Z" transform="translate(-244 -314.84)"/><path d="M1071.32,501.28a1.87,1.87,0,0,0-1.53-.15L1058.53,505l-6.91-3.92,7.77-2.81a1.92,1.92,0,0,0,1-.84l.07-.13a1.88,1.88,0,0,0-.71-2.56,1.9,1.9,0,0,0-1.53-.14L1047,498.42l-6.18-3.5,0-3.14,6.13-3.6,11.32,3.65a1.88,1.88,0,0,0,2.19-2.74l-.08-.13a1.84,1.84,0,0,0-1-.82l-7.82-2.68,6.85-4,11.32,3.65a1.81,1.81,0,0,0,1.52-.17,1.87,1.87,0,0,0,.67-2.57l-.08-.12a1.85,1.85,0,0,0-1-.83l-7.81-2.68,3.85-2.26a2.72,2.72,0,1,0-2.76-4.69l-3.85,2.26,1.45-8.13a1.85,1.85,0,0,0-.23-1.28l-.07-.13a1.88,1.88,0,0,0-2.57-.66,1.85,1.85,0,0,0-.89,1.25l-2.3,11.67-6.85,4,1.45-8.13a1.87,1.87,0,0,0-.23-1.29l-.07-.12a1.88,1.88,0,0,0-3.46.58l-2.3,11.67-4.39,2.59-4.48-2.19,0-5.44,8.82-8a1.85,1.85,0,0,0,.62-1.41,1.88,1.88,0,0,0-1.89-1.86h-.15a1.94,1.94,0,0,0-1.22.46l-6.22,5.43-.07-7.94,8.82-8a1.88,1.88,0,0,0-1.27-3.28h-.15a1.9,1.9,0,0,0-1.22.47l-6.22,5.43,0-4.47a2.72,2.72,0,0,0-5.44,0l0,4.47-6.32-5.32a1.84,1.84,0,0,0-1.23-.44h-.15a1.88,1.88,0,0,0-1.86,1.89,1.92,1.92,0,0,0,.64,1.4l9,7.83.07,7.94-6.32-5.33a2,2,0,0,0-1.23-.44H1022a1.89,1.89,0,0,0-1.86,1.9,1.94,1.94,0,0,0,.64,1.4l9,7.82,0,5.44-4.45,2.27-4.43-2.51-2.5-11.63a1.86,1.86,0,0,0-.91-1.24,1.88,1.88,0,0,0-2.56.71l-.07.13a1.9,1.9,0,0,0-.21,1.28l1.59,8.11-6.91-3.91-2.5-11.63a1.84,1.84,0,0,0-.91-1.24,1.87,1.87,0,0,0-2.56.71l-.07.13a1.84,1.84,0,0,0-.21,1.28l1.59,8.11-3.89-2.2a2.72,2.72,0,1,0-2.68,4.73l3.89,2.2L994.25,482a1.88,1.88,0,0,0-1,.84l-.07.13a1.88,1.88,0,0,0,.71,2.56,1.86,1.86,0,0,0,1.53.14l11.26-3.84,6.91,3.92-7.77,2.81a1.88,1.88,0,0,0-1,.84l-.07.13a1.88,1.88,0,0,0,2.24,2.7l11.25-3.84,6.19,3.5,0,3.14-6.13,3.6L1007,495a1.81,1.81,0,0,0-1.52.17,1.87,1.87,0,0,0-.67,2.57l.08.12a1.85,1.85,0,0,0,1,.83l7.81,2.68-6.85,4-11.32-3.66a1.88,1.88,0,0,0-2.19,2.74l.08.13a1.79,1.79,0,0,0,1,.82l7.81,2.68-3.85,2.27a2.72,2.72,0,0,0,2.76,4.69l3.85-2.27-1.45,8.13a1.87,1.87,0,0,0,.23,1.29l.07.12a1.88,1.88,0,0,0,3.46-.58l2.3-11.67,6.85-4L1015,514.2a1.84,1.84,0,0,0,.23,1.28l.07.13a1.88,1.88,0,0,0,3.46-.59l2.3-11.67,4.39-2.58L1030,503l0,5.44-8.82,8a1.84,1.84,0,0,0-.62,1.4,1.87,1.87,0,0,0,1.89,1.86h.15a1.83,1.83,0,0,0,1.22-.46l6.22-5.43.07,8-8.82,8a1.88,1.88,0,0,0,1.27,3.27h.15a1.89,1.89,0,0,0,1.22-.46l6.22-5.43,0,4.47a2.72,2.72,0,1,0,5.44,0l0-4.46,6.32,5.32a1.89,1.89,0,0,0,1.23.44h.14a1.88,1.88,0,0,0,1.86-1.89,1.83,1.83,0,0,0-.64-1.4l-9-7.83-.07-7.94,6.32,5.32a1.84,1.84,0,0,0,1.23.44h.14a1.87,1.87,0,0,0,1.86-1.89,1.83,1.83,0,0,0-.64-1.4l-9-7.83,0-5.44,4.45-2.26,4.43,2.51,2.5,11.63a1.88,1.88,0,0,0,3.47.53l.07-.13a1.93,1.93,0,0,0,.21-1.29l-1.59-8.11,6.91,3.92,2.5,11.63a1.88,1.88,0,0,0,3.47.53l.07-.13a1.93,1.93,0,0,0,.21-1.29l-1.59-8.1,3.89,2.2a2.72,2.72,0,1,0,2.68-4.73l-3.89-2.21,7.77-2.81a1.92,1.92,0,0,0,1-.84l.07-.13A1.87,1.87,0,0,0,1071.32,501.28Zm-36-5.16-2.71,1.38-2.73-1.34-.05-5.44,2.71-1.38,2.73,1.34Z" transform="translate(-244 -314.84)"/><path d="M1071.32,631.28a1.87,1.87,0,0,0-1.53-.15L1058.53,635l-6.91-3.92,7.77-2.81a1.92,1.92,0,0,0,1-.84l.07-.13a1.88,1.88,0,0,0-.71-2.56,1.9,1.9,0,0,0-1.53-.14L1047,628.42l-6.18-3.5,0-3.14,6.13-3.6,11.32,3.65a1.88,1.88,0,0,0,2.19-2.74l-.08-.13a1.84,1.84,0,0,0-1-.82l-7.82-2.68,6.85-4,11.32,3.65a1.81,1.81,0,0,0,1.52-.17,1.87,1.87,0,0,0,.67-2.57l-.08-.12a1.85,1.85,0,0,0-1-.83l-7.81-2.68,3.85-2.26a2.72,2.72,0,1,0-2.76-4.69l-3.85,2.26,1.45-8.13a1.85,1.85,0,0,0-.23-1.28l-.07-.13a1.88,1.88,0,0,0-2.57-.66,1.85,1.85,0,0,0-.89,1.25l-2.3,11.67-6.85,4,1.45-8.13a1.87,1.87,0,0,0-.23-1.29l-.07-.12a1.88,1.88,0,0,0-3.46.58l-2.3,11.67-4.39,2.59-4.48-2.19,0-5.44,8.82-8a1.85,1.85,0,0,0,.62-1.41,1.88,1.88,0,0,0-1.89-1.86h-.15a1.94,1.94,0,0,0-1.22.46l-6.22,5.43-.07-7.94,8.82-8a1.88,1.88,0,0,0-1.27-3.28h-.15a1.9,1.9,0,0,0-1.22.47l-6.22,5.43,0-4.47a2.72,2.72,0,1,0-5.44,0l0,4.47-6.32-5.32a1.84,1.84,0,0,0-1.23-.44h-.15a1.88,1.88,0,0,0-1.86,1.89,1.92,1.92,0,0,0,.64,1.4l9,7.83.07,7.94-6.32-5.33a2,2,0,0,0-1.23-.44H1022a1.89,1.89,0,0,0-1.86,1.9,1.94,1.94,0,0,0,.64,1.4l9,7.82,0,5.44-4.45,2.27-4.43-2.51-2.5-11.63a1.86,1.86,0,0,0-.91-1.24,1.88,1.88,0,0,0-2.56.71l-.07.13a1.9,1.9,0,0,0-.21,1.28l1.59,8.11-6.91-3.91-2.5-11.63a1.84,1.84,0,0,0-.91-1.24,1.87,1.87,0,0,0-2.56.71l-.07.13a1.84,1.84,0,0,0-.21,1.28l1.59,8.11-3.89-2.2a2.72,2.72,0,1,0-2.68,4.73l3.89,2.2L994.25,612a1.88,1.88,0,0,0-1,.84l-.07.13a1.88,1.88,0,0,0,.71,2.56,1.86,1.86,0,0,0,1.53.14l11.26-3.84,6.91,3.92-7.77,2.81a1.88,1.88,0,0,0-1,.84l-.07.13a1.88,1.88,0,0,0,2.24,2.7l11.25-3.84,6.19,3.5,0,3.14-6.13,3.6L1007,625a1.81,1.81,0,0,0-1.52.17,1.87,1.87,0,0,0-.67,2.57l.08.12a1.85,1.85,0,0,0,1,.83l7.81,2.68-6.85,4-11.32-3.66a1.88,1.88,0,0,0-2.19,2.74l.08.13a1.79,1.79,0,0,0,1,.82l7.81,2.68-3.85,2.27a2.72,2.72,0,0,0,2.76,4.69l3.85-2.27-1.45,8.13a1.87,1.87,0,0,0,.23,1.29l.07.12a1.88,1.88,0,0,0,3.46-.58l2.3-11.67,6.85-4L1015,644.2a1.84,1.84,0,0,0,.23,1.28l.07.13a1.88,1.88,0,0,0,3.46-.59l2.3-11.67,4.39-2.58L1030,633l0,5.44-8.82,8a1.84,1.84,0,0,0-.62,1.4,1.87,1.87,0,0,0,1.89,1.86h.15a1.83,1.83,0,0,0,1.22-.46l6.22-5.43.07,8-8.82,8a1.88,1.88,0,0,0,1.27,3.27h.15a1.89,1.89,0,0,0,1.22-.46l6.22-5.43,0,4.47a2.72,2.72,0,1,0,5.44,0l0-4.46,6.32,5.32a1.89,1.89,0,0,0,1.23.44h.14a1.88,1.88,0,0,0,1.86-1.89,1.83,1.83,0,0,0-.64-1.4l-9-7.83-.07-7.94,6.32,5.32a1.84,1.84,0,0,0,1.23.44h.14a1.87,1.87,0,0,0,1.86-1.89,1.83,1.83,0,0,0-.64-1.4l-9-7.83,0-5.44,4.45-2.26,4.43,2.51,2.5,11.63a1.88,1.88,0,0,0,3.47.53l.07-.13a1.93,1.93,0,0,0,.21-1.29l-1.59-8.11,6.91,3.92,2.5,11.63a1.88,1.88,0,0,0,3.47.53l.07-.13a1.93,1.93,0,0,0,.21-1.29l-1.59-8.1,3.89,2.2a2.72,2.72,0,1,0,2.68-4.73l-3.89-2.21,7.77-2.81a1.92,1.92,0,0,0,1-.84l.07-.13A1.87,1.87,0,0,0,1071.32,631.28Zm-36-5.16-2.71,1.38-2.73-1.34-.05-5.44,2.71-1.38,2.73,1.34Z" transform="translate(-244 -314.84)"/><path d="M1071.32,741.28a1.87,1.87,0,0,0-1.53-.15L1058.53,745l-6.91-3.92,7.77-2.81a1.92,1.92,0,0,0,1-.84l.07-.13a1.88,1.88,0,0,0-.71-2.56,1.9,1.9,0,0,0-1.53-.14L1047,738.42l-6.18-3.5,0-3.14,6.13-3.6,11.32,3.65a1.88,1.88,0,0,0,2.19-2.74l-.08-.13a1.84,1.84,0,0,0-1-.82l-7.82-2.68,6.85-4,11.32,3.65a1.81,1.81,0,0,0,1.52-.17,1.87,1.87,0,0,0,.67-2.57l-.08-.12a1.85,1.85,0,0,0-1-.83l-7.81-2.68,3.85-2.26a2.72,2.72,0,1,0-2.76-4.69l-3.85,2.26,1.45-8.13a1.85,1.85,0,0,0-.23-1.28l-.07-.13a1.88,1.88,0,0,0-2.57-.66,1.85,1.85,0,0,0-.89,1.25l-2.3,11.67-6.85,4,1.45-8.13a1.87,1.87,0,0,0-.23-1.29l-.07-.12a1.88,1.88,0,0,0-3.46.58l-2.3,11.67-4.39,2.59-4.48-2.19,0-5.44,8.82-8a1.85,1.85,0,0,0,.62-1.41,1.88,1.88,0,0,0-1.89-1.86h-.15a1.94,1.94,0,0,0-1.22.46l-6.22,5.43-.07-7.94,8.82-8a1.88,1.88,0,0,0-1.27-3.28h-.15a1.9,1.9,0,0,0-1.22.47l-6.22,5.43,0-4.47a2.72,2.72,0,1,0-5.44,0l0,4.47-6.32-5.32a1.84,1.84,0,0,0-1.23-.44h-.15a1.88,1.88,0,0,0-1.86,1.89,1.92,1.92,0,0,0,.64,1.4l9,7.83.07,7.94-6.32-5.33a2,2,0,0,0-1.23-.44H1022a1.89,1.89,0,0,0-1.86,1.9,1.94,1.94,0,0,0,.64,1.4l9,7.82,0,5.44-4.45,2.27-4.43-2.51-2.5-11.63a1.86,1.86,0,0,0-.91-1.24,1.88,1.88,0,0,0-2.56.71l-.07.13a1.9,1.9,0,0,0-.21,1.28l1.59,8.11-6.91-3.91-2.5-11.63a1.84,1.84,0,0,0-.91-1.24,1.87,1.87,0,0,0-2.56.71l-.07.13a1.84,1.84,0,0,0-.21,1.28l1.59,8.11-3.89-2.2a2.72,2.72,0,1,0-2.68,4.73l3.89,2.2L994.25,722a1.88,1.88,0,0,0-1,.84l-.07.13a1.88,1.88,0,0,0,.71,2.56,1.86,1.86,0,0,0,1.53.14l11.26-3.84,6.91,3.92-7.77,2.81a1.88,1.88,0,0,0-1,.84l-.07.13a1.88,1.88,0,0,0,2.24,2.7l11.25-3.84,6.19,3.5,0,3.14-6.13,3.6L1007,735a1.81,1.81,0,0,0-1.52.17,1.87,1.87,0,0,0-.67,2.57l.08.12a1.85,1.85,0,0,0,1,.83l7.81,2.68-6.85,4-11.32-3.66a1.88,1.88,0,0,0-2.19,2.74l.08.13a1.79,1.79,0,0,0,1,.82l7.81,2.68-3.85,2.27a2.72,2.72,0,0,0,2.76,4.69l3.85-2.27-1.45,8.13a1.87,1.87,0,0,0,.23,1.29l.07.12a1.88,1.88,0,0,0,3.46-.58l2.3-11.67,6.85-4L1015,754.2a1.84,1.84,0,0,0,.23,1.28l.07.13a1.88,1.88,0,0,0,3.46-.59l2.3-11.67,4.39-2.58L1030,743l0,5.44-8.82,8a1.84,1.84,0,0,0-.62,1.4,1.87,1.87,0,0,0,1.89,1.86h.15a1.83,1.83,0,0,0,1.22-.46l6.22-5.43.07,8-8.82,8a1.88,1.88,0,0,0,1.27,3.27h.15a1.89,1.89,0,0,0,1.22-.46l6.22-5.43,0,4.47a2.72,2.72,0,1,0,5.44,0l0-4.46,6.32,5.32a1.89,1.89,0,0,0,1.23.44h.14a1.88,1.88,0,0,0,1.86-1.89,1.83,1.83,0,0,0-.64-1.4l-9-7.83-.07-7.94,6.32,5.32a1.84,1.84,0,0,0,1.23.44h.14a1.87,1.87,0,0,0,1.86-1.89,1.83,1.83,0,0,0-.64-1.4l-9-7.83,0-5.44,4.45-2.26,4.43,2.51,2.5,11.63a1.88,1.88,0,0,0,3.47.53l.07-.13a1.93,1.93,0,0,0,.21-1.29l-1.59-8.11,6.91,3.92,2.5,11.63a1.88,1.88,0,0,0,3.47.53l.07-.13a1.93,1.93,0,0,0,.21-1.29l-1.59-8.1,3.89,2.2a2.72,2.72,0,1,0,2.68-4.73l-3.89-2.21,7.77-2.81a1.92,1.92,0,0,0,1-.84l.07-.13A1.87,1.87,0,0,0,1071.32,741.28Zm-36-5.16-2.71,1.38-2.73-1.34-.05-5.44,2.71-1.38,2.73,1.34Z" transform="translate(-244 -314.84)"/><path d="M1071.32,881.28a1.87,1.87,0,0,0-1.53-.15L1058.53,885l-6.91-3.92,7.77-2.81a1.92,1.92,0,0,0,1-.84l.07-.13a1.88,1.88,0,0,0-.71-2.56,1.9,1.9,0,0,0-1.53-.14L1047,878.42l-6.18-3.5,0-3.14,6.13-3.6,11.32,3.65a1.88,1.88,0,0,0,2.19-2.74l-.08-.13a1.84,1.84,0,0,0-1-.82l-7.82-2.68,6.85-4,11.32,3.65a1.81,1.81,0,0,0,1.52-.17,1.87,1.87,0,0,0,.67-2.57l-.08-.12a1.85,1.85,0,0,0-1-.83l-7.81-2.68,3.85-2.26a2.72,2.72,0,1,0-2.76-4.69l-3.85,2.26,1.45-8.13a1.85,1.85,0,0,0-.23-1.28l-.07-.13a1.88,1.88,0,0,0-2.57-.66,1.85,1.85,0,0,0-.89,1.25l-2.3,11.67-6.85,4,1.45-8.13a1.87,1.87,0,0,0-.23-1.29l-.07-.12a1.88,1.88,0,0,0-3.46.58l-2.3,11.67-4.39,2.59-4.48-2.19,0-5.44,8.82-8a1.85,1.85,0,0,0,.62-1.41,1.88,1.88,0,0,0-1.89-1.86h-.15a1.94,1.94,0,0,0-1.22.46l-6.22,5.43-.07-7.94,8.82-8a1.88,1.88,0,0,0-1.27-3.28h-.15a1.9,1.9,0,0,0-1.22.47l-6.22,5.43,0-4.47a2.72,2.72,0,1,0-5.44,0l0,4.47-6.32-5.32a1.84,1.84,0,0,0-1.23-.44h-.15a1.88,1.88,0,0,0-1.86,1.89,1.92,1.92,0,0,0,.64,1.4l9,7.83.07,7.94-6.32-5.33a2,2,0,0,0-1.23-.44H1022a1.89,1.89,0,0,0-1.86,1.9,1.94,1.94,0,0,0,.64,1.4l9,7.82,0,5.44-4.45,2.27-4.43-2.51-2.5-11.63a1.86,1.86,0,0,0-.91-1.24,1.88,1.88,0,0,0-2.56.71l-.07.13a1.9,1.9,0,0,0-.21,1.28l1.59,8.11-6.91-3.91-2.5-11.63a1.84,1.84,0,0,0-.91-1.24,1.87,1.87,0,0,0-2.56.71l-.07.13a1.84,1.84,0,0,0-.21,1.28l1.59,8.11-3.89-2.2a2.72,2.72,0,1,0-2.68,4.73l3.89,2.2L994.25,862a1.88,1.88,0,0,0-1,.84l-.07.13a1.88,1.88,0,0,0,.71,2.56,1.86,1.86,0,0,0,1.53.14l11.26-3.84,6.91,3.92-7.77,2.81a1.88,1.88,0,0,0-1,.84l-.07.13a1.88,1.88,0,0,0,2.24,2.7l11.25-3.84,6.19,3.5,0,3.14-6.13,3.6L1007,875a1.81,1.81,0,0,0-1.52.17,1.87,1.87,0,0,0-.67,2.57l.08.12a1.85,1.85,0,0,0,1,.83l7.81,2.68-6.85,4-11.32-3.66a1.88,1.88,0,0,0-2.19,2.74l.08.13a1.79,1.79,0,0,0,1,.82l7.81,2.68-3.85,2.27a2.72,2.72,0,0,0,2.76,4.69l3.85-2.27-1.45,8.13a1.87,1.87,0,0,0,.23,1.29l.07.12a1.88,1.88,0,0,0,3.46-.58l2.3-11.67,6.85-4L1015,894.2a1.84,1.84,0,0,0,.23,1.28l.07.13a1.88,1.88,0,0,0,3.46-.59l2.3-11.67,4.39-2.58L1030,883l0,5.44-8.82,8a1.84,1.84,0,0,0-.62,1.4,1.87,1.87,0,0,0,1.89,1.86h.15a1.83,1.83,0,0,0,1.22-.46l6.22-5.43.07,8-8.82,8a1.88,1.88,0,0,0,1.27,3.27h.15a1.89,1.89,0,0,0,1.22-.46l6.22-5.43,0,4.47a2.72,2.72,0,1,0,5.44,0l0-4.46,6.32,5.32a1.89,1.89,0,0,0,1.23.44h.14a1.88,1.88,0,0,0,1.86-1.89,1.83,1.83,0,0,0-.64-1.4l-9-7.83-.07-7.94,6.32,5.32a1.84,1.84,0,0,0,1.23.44h.14a1.87,1.87,0,0,0,1.86-1.89,1.83,1.83,0,0,0-.64-1.4l-9-7.83,0-5.44,4.45-2.26,4.43,2.51,2.5,11.63a1.88,1.88,0,0,0,3.47.53l.07-.13a1.93,1.93,0,0,0,.21-1.29l-1.59-8.11,6.91,3.92,2.5,11.63a1.88,1.88,0,0,0,3.47.53l.07-.13a1.93,1.93,0,0,0,.21-1.29l-1.59-8.1,3.89,2.2a2.72,2.72,0,1,0,2.68-4.73l-3.89-2.21,7.77-2.81a1.92,1.92,0,0,0,1-.84l.07-.13A1.87,1.87,0,0,0,1071.32,881.28Zm-36-5.16-2.71,1.38-2.73-1.34-.05-5.44,2.71-1.38,2.73,1.34Z" transform="translate(-244 -314.84)"/><path d="M1071.32,981.28a1.87,1.87,0,0,0-1.53-.15L1058.53,985l-6.91-3.92,7.77-2.81a1.92,1.92,0,0,0,1-.84l.07-.13a1.88,1.88,0,0,0-.71-2.56,1.9,1.9,0,0,0-1.53-.14L1047,978.42l-6.18-3.5,0-3.14,6.13-3.6,11.32,3.65a1.88,1.88,0,0,0,2.19-2.74l-.08-.13a1.84,1.84,0,0,0-1-.82l-7.82-2.68,6.85-4,11.32,3.65a1.81,1.81,0,0,0,1.52-.17,1.87,1.87,0,0,0,.67-2.57l-.08-.12a1.85,1.85,0,0,0-1-.83l-7.81-2.68,3.85-2.26a2.72,2.72,0,1,0-2.76-4.69l-3.85,2.26,1.45-8.13a1.85,1.85,0,0,0-.23-1.28l-.07-.13a1.88,1.88,0,0,0-2.57-.66,1.85,1.85,0,0,0-.89,1.25l-2.3,11.67-6.85,4,1.45-8.13a1.87,1.87,0,0,0-.23-1.29l-.07-.12a1.88,1.88,0,0,0-3.46.58l-2.3,11.67-4.39,2.59-4.48-2.19,0-5.44,8.82-8a1.85,1.85,0,0,0,.62-1.41,1.88,1.88,0,0,0-1.89-1.86h-.15a1.94,1.94,0,0,0-1.22.46l-6.22,5.43-.07-7.94,8.82-8a1.88,1.88,0,0,0-1.27-3.28h-.15a1.9,1.9,0,0,0-1.22.47l-6.22,5.43,0-4.47a2.72,2.72,0,1,0-5.44,0l0,4.47-6.32-5.32a1.84,1.84,0,0,0-1.23-.44h-.15a1.88,1.88,0,0,0-1.86,1.89,1.92,1.92,0,0,0,.64,1.4l9,7.83.07,7.94-6.32-5.33a2,2,0,0,0-1.23-.44H1022a1.89,1.89,0,0,0-1.86,1.9,1.94,1.94,0,0,0,.64,1.4l9,7.82,0,5.44-4.45,2.27-4.43-2.51-2.5-11.63a1.86,1.86,0,0,0-.91-1.24,1.88,1.88,0,0,0-2.56.71l-.07.13a1.9,1.9,0,0,0-.21,1.28l1.59,8.11-6.91-3.91-2.5-11.63a1.84,1.84,0,0,0-.91-1.24,1.87,1.87,0,0,0-2.56.71l-.07.13a1.84,1.84,0,0,0-.21,1.28l1.59,8.11-3.89-2.2a2.72,2.72,0,1,0-2.68,4.73l3.89,2.2L994.25,962a1.88,1.88,0,0,0-1,.84l-.07.13a1.88,1.88,0,0,0,.71,2.56,1.86,1.86,0,0,0,1.53.14l11.26-3.84,6.91,3.92-7.77,2.81a1.88,1.88,0,0,0-1,.84l-.07.13a1.88,1.88,0,0,0,2.24,2.7l11.25-3.84,6.19,3.5,0,3.14-6.13,3.6L1007,975a1.81,1.81,0,0,0-1.52.17,1.87,1.87,0,0,0-.67,2.57l.08.12a1.85,1.85,0,0,0,1,.83l7.81,2.68-6.85,4-11.32-3.66a1.88,1.88,0,0,0-2.19,2.74l.08.13a1.79,1.79,0,0,0,1,.82l7.81,2.68-3.85,2.27a2.72,2.72,0,0,0,2.76,4.69l3.85-2.27-1.45,8.13a1.87,1.87,0,0,0,.23,1.29l.07.12a1.88,1.88,0,0,0,3.46-.58l2.3-11.67,6.85-4L1015,994.2a1.84,1.84,0,0,0,.23,1.28l.07.13a1.88,1.88,0,0,0,3.46-.59l2.3-11.67,4.39-2.58L1030,983l0,5.44-8.82,8a1.84,1.84,0,0,0-.62,1.4,1.87,1.87,0,0,0,1.89,1.86h.15a1.83,1.83,0,0,0,1.22-.46l6.22-5.43.07,8-8.82,8a1.88,1.88,0,0,0,1.27,3.27h.15a1.89,1.89,0,0,0,1.22-.46l6.22-5.43,0,4.47a2.72,2.72,0,1,0,5.44,0l0-4.46,6.32,5.32a1.89,1.89,0,0,0,1.23.44h.14a1.88,1.88,0,0,0,1.86-1.89,1.83,1.83,0,0,0-.64-1.4l-9-7.83-.07-7.94,6.32,5.32a1.84,1.84,0,0,0,1.23.44h.14a1.87,1.87,0,0,0,1.86-1.89,1.83,1.83,0,0,0-.64-1.4l-9-7.83,0-5.44,4.45-2.26,4.43,2.51,2.5,11.63a1.88,1.88,0,0,0,3.47.53l.07-.13a1.93,1.93,0,0,0,.21-1.29l-1.59-8.11,6.91,3.92,2.5,11.63a1.88,1.88,0,0,0,3.47.53l.07-.13a1.93,1.93,0,0,0,.21-1.29l-1.59-8.1,3.89,2.2a2.72,2.72,0,1,0,2.68-4.73l-3.89-2.21,7.77-2.81a1.92,1.92,0,0,0,1-.84l.07-.13A1.87,1.87,0,0,0,1071.32,981.28Zm-36-5.16-2.71,1.38-2.73-1.34-.05-5.44,2.71-1.38,2.73,1.34Z" transform="translate(-244 -314.84)"/><path d="M1151.32,441.28a1.87,1.87,0,0,0-1.53-.15L1138.53,445l-6.91-3.92,7.77-2.81a1.92,1.92,0,0,0,1-.84l.07-.13a1.88,1.88,0,0,0-.71-2.56,1.9,1.9,0,0,0-1.53-.14L1127,438.42l-6.18-3.5,0-3.14,6.13-3.6,11.32,3.65a1.88,1.88,0,0,0,2.19-2.74l-.08-.13a1.84,1.84,0,0,0-1-.82l-7.82-2.68,6.85-4,11.32,3.65a1.81,1.81,0,0,0,1.52-.17,1.87,1.87,0,0,0,.67-2.57l-.08-.12a1.85,1.85,0,0,0-1-.83l-7.81-2.68,3.85-2.26a2.72,2.72,0,1,0-2.76-4.69l-3.85,2.26,1.45-8.13a1.85,1.85,0,0,0-.23-1.28l-.07-.13a1.88,1.88,0,0,0-2.57-.66,1.85,1.85,0,0,0-.89,1.25l-2.3,11.67-6.85,4,1.45-8.13a1.87,1.87,0,0,0-.23-1.29l-.07-.12a1.88,1.88,0,0,0-3.46.58l-2.3,11.67-4.39,2.59-4.48-2.19,0-5.44,8.82-8a1.85,1.85,0,0,0,.62-1.41,1.88,1.88,0,0,0-1.89-1.86h-.15a1.94,1.94,0,0,0-1.22.46l-6.22,5.43-.07-7.94,8.82-8a1.88,1.88,0,0,0-1.27-3.28h-.15a1.9,1.9,0,0,0-1.22.47l-6.22,5.43,0-4.47a2.72,2.72,0,0,0-5.44,0l0,4.47-6.32-5.32a1.84,1.84,0,0,0-1.23-.44h-.15a1.88,1.88,0,0,0-1.86,1.89,1.92,1.92,0,0,0,.64,1.4l9,7.83.07,7.94-6.32-5.33a2,2,0,0,0-1.23-.44H1102a1.89,1.89,0,0,0-1.86,1.9,1.94,1.94,0,0,0,.64,1.4l9,7.82,0,5.44-4.45,2.27-4.43-2.51-2.5-11.63a1.86,1.86,0,0,0-.91-1.24,1.88,1.88,0,0,0-2.56.71l-.07.13a1.9,1.9,0,0,0-.21,1.28l1.59,8.11-6.91-3.91-2.5-11.63a1.84,1.84,0,0,0-.91-1.24,1.87,1.87,0,0,0-2.56.71l-.07.13a1.84,1.84,0,0,0-.21,1.28l1.59,8.11-3.89-2.2a2.72,2.72,0,1,0-2.68,4.73l3.89,2.2-7.77,2.81a1.88,1.88,0,0,0-1,.84l-.07.13a1.88,1.88,0,0,0,.71,2.56,1.86,1.86,0,0,0,1.53.14l11.26-3.84,6.91,3.92-7.77,2.81a1.88,1.88,0,0,0-1,.84l-.07.13a1.88,1.88,0,0,0,2.24,2.7l11.25-3.84,6.19,3.5,0,3.14-6.13,3.6L1087,435a1.81,1.81,0,0,0-1.52.17,1.87,1.87,0,0,0-.67,2.57l.08.12a1.85,1.85,0,0,0,1,.83l7.81,2.68-6.85,4-11.32-3.66a1.88,1.88,0,0,0-2.19,2.74l.08.13a1.79,1.79,0,0,0,1,.82l7.81,2.68-3.85,2.27a2.72,2.72,0,0,0,2.76,4.69l3.85-2.27-1.45,8.13a1.87,1.87,0,0,0,.23,1.29l.07.12a1.88,1.88,0,0,0,3.46-.58l2.3-11.67,6.85-4L1095,454.2a1.84,1.84,0,0,0,.23,1.28l.07.13a1.88,1.88,0,0,0,3.46-.59l2.3-11.67,4.39-2.58L1110,443l0,5.44-8.82,8a1.84,1.84,0,0,0-.62,1.4,1.87,1.87,0,0,0,1.89,1.86h.15a1.83,1.83,0,0,0,1.22-.46l6.22-5.43.07,7.95-8.82,8a1.88,1.88,0,0,0,1.27,3.27h.15a1.89,1.89,0,0,0,1.22-.46l6.22-5.43,0,4.47a2.72,2.72,0,1,0,5.44,0l0-4.46,6.32,5.32a1.89,1.89,0,0,0,1.23.44h.14a1.88,1.88,0,0,0,1.86-1.89,1.83,1.83,0,0,0-.64-1.4l-9-7.83-.07-7.94,6.32,5.32a1.84,1.84,0,0,0,1.23.44h.14a1.87,1.87,0,0,0,1.86-1.89,1.83,1.83,0,0,0-.64-1.4l-9-7.83,0-5.44,4.45-2.26,4.43,2.51,2.5,11.63a1.88,1.88,0,0,0,3.47.53l.07-.13a1.93,1.93,0,0,0,.21-1.29l-1.59-8.11,6.91,3.92,2.5,11.63a1.88,1.88,0,0,0,3.47.53l.07-.13a1.93,1.93,0,0,0,.21-1.29l-1.59-8.1,3.89,2.2a2.72,2.72,0,1,0,2.68-4.73l-3.89-2.21,7.77-2.81a1.92,1.92,0,0,0,1-.84l.07-.13A1.87,1.87,0,0,0,1151.32,441.28Zm-36-5.16-2.71,1.38-2.73-1.34-.05-5.44,2.71-1.38,2.73,1.34Z" transform="translate(-244 -314.84)"/><path d="M1151.32,561.28a1.87,1.87,0,0,0-1.53-.15L1138.53,565l-6.91-3.92,7.77-2.81a1.92,1.92,0,0,0,1-.84l.07-.13a1.88,1.88,0,0,0-.71-2.56,1.9,1.9,0,0,0-1.53-.14L1127,558.42l-6.18-3.5,0-3.14,6.13-3.6,11.32,3.65a1.88,1.88,0,0,0,2.19-2.74l-.08-.13a1.84,1.84,0,0,0-1-.82l-7.82-2.68,6.85-4,11.32,3.65a1.81,1.81,0,0,0,1.52-.17,1.87,1.87,0,0,0,.67-2.57l-.08-.12a1.85,1.85,0,0,0-1-.83l-7.81-2.68,3.85-2.26a2.72,2.72,0,1,0-2.76-4.69l-3.85,2.26,1.45-8.13a1.85,1.85,0,0,0-.23-1.28l-.07-.13a1.88,1.88,0,0,0-2.57-.66,1.85,1.85,0,0,0-.89,1.25l-2.3,11.67-6.85,4,1.45-8.13a1.87,1.87,0,0,0-.23-1.29l-.07-.12a1.88,1.88,0,0,0-3.46.58l-2.3,11.67-4.39,2.59-4.48-2.19,0-5.44,8.82-8a1.85,1.85,0,0,0,.62-1.41,1.88,1.88,0,0,0-1.89-1.86h-.15a1.94,1.94,0,0,0-1.22.46l-6.22,5.43-.07-7.94,8.82-8a1.88,1.88,0,0,0-1.27-3.28h-.15a1.9,1.9,0,0,0-1.22.47l-6.22,5.43,0-4.47a2.72,2.72,0,0,0-5.44,0l0,4.47-6.32-5.32a1.84,1.84,0,0,0-1.23-.44h-.15a1.88,1.88,0,0,0-1.86,1.89,1.92,1.92,0,0,0,.64,1.4l9,7.83.07,7.94-6.32-5.33a2,2,0,0,0-1.23-.44H1102a1.89,1.89,0,0,0-1.86,1.9,1.94,1.94,0,0,0,.64,1.4l9,7.82,0,5.44-4.45,2.27-4.43-2.51-2.5-11.63a1.86,1.86,0,0,0-.91-1.24,1.88,1.88,0,0,0-2.56.71l-.07.13a1.9,1.9,0,0,0-.21,1.28l1.59,8.11-6.91-3.91-2.5-11.63a1.84,1.84,0,0,0-.91-1.24,1.87,1.87,0,0,0-2.56.71l-.07.13a1.84,1.84,0,0,0-.21,1.28l1.59,8.11-3.89-2.2a2.72,2.72,0,1,0-2.68,4.73l3.89,2.2-7.77,2.81a1.88,1.88,0,0,0-1,.84l-.07.13a1.88,1.88,0,0,0,.71,2.56,1.86,1.86,0,0,0,1.53.14l11.26-3.84,6.91,3.92-7.77,2.81a1.88,1.88,0,0,0-1,.84l-.07.13a1.88,1.88,0,0,0,2.24,2.7l11.25-3.84,6.19,3.5,0,3.14-6.13,3.6L1087,555a1.81,1.81,0,0,0-1.52.17,1.87,1.87,0,0,0-.67,2.57l.08.12a1.85,1.85,0,0,0,1,.83l7.81,2.68-6.85,4-11.32-3.66a1.88,1.88,0,0,0-2.19,2.74l.08.13a1.79,1.79,0,0,0,1,.82l7.81,2.68-3.85,2.27a2.72,2.72,0,0,0,2.76,4.69l3.85-2.27-1.45,8.13a1.87,1.87,0,0,0,.23,1.29l.07.12a1.88,1.88,0,0,0,3.46-.58l2.3-11.67,6.85-4L1095,574.2a1.84,1.84,0,0,0,.23,1.28l.07.13a1.88,1.88,0,0,0,3.46-.59l2.3-11.67,4.39-2.58L1110,563l0,5.44-8.82,8a1.84,1.84,0,0,0-.62,1.4,1.87,1.87,0,0,0,1.89,1.86h.15a1.83,1.83,0,0,0,1.22-.46l6.22-5.43.07,8-8.82,8a1.88,1.88,0,0,0,1.27,3.27h.15a1.89,1.89,0,0,0,1.22-.46l6.22-5.43,0,4.47a2.72,2.72,0,1,0,5.44,0l0-4.46,6.32,5.32a1.89,1.89,0,0,0,1.23.44h.14a1.88,1.88,0,0,0,1.86-1.89,1.83,1.83,0,0,0-.64-1.4l-9-7.83-.07-7.94,6.32,5.32a1.84,1.84,0,0,0,1.23.44h.14a1.87,1.87,0,0,0,1.86-1.89,1.83,1.83,0,0,0-.64-1.4l-9-7.83,0-5.44,4.45-2.26,4.43,2.51,2.5,11.63a1.88,1.88,0,0,0,3.47.53l.07-.13a1.93,1.93,0,0,0,.21-1.29l-1.59-8.11,6.91,3.92,2.5,11.63a1.88,1.88,0,0,0,3.47.53l.07-.13a1.93,1.93,0,0,0,.21-1.29l-1.59-8.1,3.89,2.2a2.72,2.72,0,1,0,2.68-4.73l-3.89-2.21,7.77-2.81a1.92,1.92,0,0,0,1-.84l.07-.13A1.87,1.87,0,0,0,1151.32,561.28Zm-36-5.16-2.71,1.38-2.73-1.34-.05-5.44,2.71-1.38,2.73,1.34Z" transform="translate(-244 -314.84)"/><path d="M1151.32,681.28a1.87,1.87,0,0,0-1.53-.15L1138.53,685l-6.91-3.92,7.77-2.81a1.92,1.92,0,0,0,1-.84l.07-.13a1.88,1.88,0,0,0-.71-2.56,1.9,1.9,0,0,0-1.53-.14L1127,678.42l-6.18-3.5,0-3.14,6.13-3.6,11.32,3.65a1.88,1.88,0,0,0,2.19-2.74l-.08-.13a1.84,1.84,0,0,0-1-.82l-7.82-2.68,6.85-4,11.32,3.65a1.81,1.81,0,0,0,1.52-.17,1.87,1.87,0,0,0,.67-2.57l-.08-.12a1.85,1.85,0,0,0-1-.83l-7.81-2.68,3.85-2.26a2.72,2.72,0,1,0-2.76-4.69l-3.85,2.26,1.45-8.13a1.85,1.85,0,0,0-.23-1.28l-.07-.13a1.88,1.88,0,0,0-2.57-.66,1.85,1.85,0,0,0-.89,1.25l-2.3,11.67-6.85,4,1.45-8.13a1.87,1.87,0,0,0-.23-1.29l-.07-.12a1.88,1.88,0,0,0-3.46.58l-2.3,11.67-4.39,2.59-4.48-2.19,0-5.44,8.82-8a1.85,1.85,0,0,0,.62-1.41,1.88,1.88,0,0,0-1.89-1.86h-.15a1.94,1.94,0,0,0-1.22.46l-6.22,5.43-.07-7.94,8.82-8a1.88,1.88,0,0,0-1.27-3.28h-.15a1.9,1.9,0,0,0-1.22.47l-6.22,5.43,0-4.47a2.72,2.72,0,1,0-5.44,0l0,4.47-6.32-5.32a1.84,1.84,0,0,0-1.23-.44h-.15a1.88,1.88,0,0,0-1.86,1.89,1.92,1.92,0,0,0,.64,1.4l9,7.83.07,7.94-6.32-5.33a2,2,0,0,0-1.23-.44H1102a1.89,1.89,0,0,0-1.86,1.9,1.94,1.94,0,0,0,.64,1.4l9,7.82,0,5.44-4.45,2.27-4.43-2.51-2.5-11.63a1.86,1.86,0,0,0-.91-1.24,1.88,1.88,0,0,0-2.56.71l-.07.13a1.9,1.9,0,0,0-.21,1.28l1.59,8.11-6.91-3.91-2.5-11.63a1.84,1.84,0,0,0-.91-1.24,1.87,1.87,0,0,0-2.56.71l-.07.13a1.84,1.84,0,0,0-.21,1.28l1.59,8.11-3.89-2.2a2.72,2.72,0,1,0-2.68,4.73l3.89,2.2-7.77,2.81a1.88,1.88,0,0,0-1,.84l-.07.13a1.88,1.88,0,0,0,.71,2.56,1.86,1.86,0,0,0,1.53.14l11.26-3.84,6.91,3.92-7.77,2.81a1.88,1.88,0,0,0-1,.84l-.07.13a1.88,1.88,0,0,0,2.24,2.7l11.25-3.84,6.19,3.5,0,3.14-6.13,3.6L1087,675a1.81,1.81,0,0,0-1.52.17,1.87,1.87,0,0,0-.67,2.57l.08.12a1.85,1.85,0,0,0,1,.83l7.81,2.68-6.85,4-11.32-3.66a1.88,1.88,0,0,0-2.19,2.74l.08.13a1.79,1.79,0,0,0,1,.82l7.81,2.68-3.85,2.27a2.72,2.72,0,0,0,2.76,4.69l3.85-2.27-1.45,8.13a1.87,1.87,0,0,0,.23,1.29l.07.12a1.88,1.88,0,0,0,3.46-.58l2.3-11.67,6.85-4L1095,694.2a1.84,1.84,0,0,0,.23,1.28l.07.13a1.88,1.88,0,0,0,3.46-.59l2.3-11.67,4.39-2.58L1110,683l0,5.44-8.82,8a1.84,1.84,0,0,0-.62,1.4,1.87,1.87,0,0,0,1.89,1.86h.15a1.83,1.83,0,0,0,1.22-.46l6.22-5.43.07,8-8.82,8a1.88,1.88,0,0,0,1.27,3.27h.15a1.89,1.89,0,0,0,1.22-.46l6.22-5.43,0,4.47a2.72,2.72,0,1,0,5.44,0l0-4.46,6.32,5.32a1.89,1.89,0,0,0,1.23.44h.14a1.88,1.88,0,0,0,1.86-1.89,1.83,1.83,0,0,0-.64-1.4l-9-7.83-.07-7.94,6.32,5.32a1.84,1.84,0,0,0,1.23.44h.14a1.87,1.87,0,0,0,1.86-1.89,1.83,1.83,0,0,0-.64-1.4l-9-7.83,0-5.44,4.45-2.26,4.43,2.51,2.5,11.63a1.88,1.88,0,0,0,3.47.53l.07-.13a1.93,1.93,0,0,0,.21-1.29l-1.59-8.11,6.91,3.92,2.5,11.63a1.88,1.88,0,0,0,3.47.53l.07-.13a1.93,1.93,0,0,0,.21-1.29l-1.59-8.1,3.89,2.2a2.72,2.72,0,1,0,2.68-4.73l-3.89-2.21,7.77-2.81a1.92,1.92,0,0,0,1-.84l.07-.13A1.87,1.87,0,0,0,1151.32,681.28Zm-36-5.16-2.71,1.38-2.73-1.34-.05-5.44,2.71-1.38,2.73,1.34Z" transform="translate(-244 -314.84)"/><path d="M1151.32,801.28a1.87,1.87,0,0,0-1.53-.15L1138.53,805l-6.91-3.92,7.77-2.81a1.92,1.92,0,0,0,1-.84l.07-.13a1.88,1.88,0,0,0-.71-2.56,1.9,1.9,0,0,0-1.53-.14L1127,798.42l-6.18-3.5,0-3.14,6.13-3.6,11.32,3.65a1.88,1.88,0,0,0,2.19-2.74l-.08-.13a1.84,1.84,0,0,0-1-.82l-7.82-2.68,6.85-4,11.32,3.65a1.81,1.81,0,0,0,1.52-.17,1.87,1.87,0,0,0,.67-2.57l-.08-.12a1.85,1.85,0,0,0-1-.83l-7.81-2.68,3.85-2.26a2.72,2.72,0,1,0-2.76-4.69l-3.85,2.26,1.45-8.13a1.85,1.85,0,0,0-.23-1.28l-.07-.13a1.88,1.88,0,0,0-2.57-.66,1.85,1.85,0,0,0-.89,1.25l-2.3,11.67-6.85,4,1.45-8.13a1.87,1.87,0,0,0-.23-1.29l-.07-.12a1.88,1.88,0,0,0-3.46.58l-2.3,11.67-4.39,2.59-4.48-2.19,0-5.44,8.82-8a1.85,1.85,0,0,0,.62-1.41,1.88,1.88,0,0,0-1.89-1.86h-.15a1.94,1.94,0,0,0-1.22.46l-6.22,5.43-.07-7.94,8.82-8a1.88,1.88,0,0,0-1.27-3.28h-.15a1.9,1.9,0,0,0-1.22.47l-6.22,5.43,0-4.47a2.72,2.72,0,1,0-5.44,0l0,4.47-6.32-5.32a1.84,1.84,0,0,0-1.23-.44h-.15a1.88,1.88,0,0,0-1.86,1.89,1.92,1.92,0,0,0,.64,1.4l9,7.83.07,7.94-6.32-5.33a2,2,0,0,0-1.23-.44H1102a1.89,1.89,0,0,0-1.86,1.9,1.94,1.94,0,0,0,.64,1.4l9,7.82,0,5.44-4.45,2.27-4.43-2.51-2.5-11.63a1.86,1.86,0,0,0-.91-1.24,1.88,1.88,0,0,0-2.56.71l-.07.13a1.9,1.9,0,0,0-.21,1.28l1.59,8.11-6.91-3.91-2.5-11.63a1.84,1.84,0,0,0-.91-1.24,1.87,1.87,0,0,0-2.56.71l-.07.13a1.84,1.84,0,0,0-.21,1.28l1.59,8.11-3.89-2.2a2.72,2.72,0,1,0-2.68,4.73l3.89,2.2-7.77,2.81a1.88,1.88,0,0,0-1,.84l-.07.13a1.88,1.88,0,0,0,.71,2.56,1.86,1.86,0,0,0,1.53.14l11.26-3.84,6.91,3.92-7.77,2.81a1.88,1.88,0,0,0-1,.84l-.07.13a1.88,1.88,0,0,0,2.24,2.7l11.25-3.84,6.19,3.5,0,3.14-6.13,3.6L1087,795a1.81,1.81,0,0,0-1.52.17,1.87,1.87,0,0,0-.67,2.57l.08.12a1.85,1.85,0,0,0,1,.83l7.81,2.68-6.85,4-11.32-3.66a1.88,1.88,0,0,0-2.19,2.74l.08.13a1.79,1.79,0,0,0,1,.82l7.81,2.68-3.85,2.27a2.72,2.72,0,0,0,2.76,4.69l3.85-2.27-1.45,8.13a1.87,1.87,0,0,0,.23,1.29l.07.12a1.88,1.88,0,0,0,3.46-.58l2.3-11.67,6.85-4L1095,814.2a1.84,1.84,0,0,0,.23,1.28l.07.13a1.88,1.88,0,0,0,3.46-.59l2.3-11.67,4.39-2.58L1110,803l0,5.44-8.82,8a1.84,1.84,0,0,0-.62,1.4,1.87,1.87,0,0,0,1.89,1.86h.15a1.83,1.83,0,0,0,1.22-.46l6.22-5.43.07,8-8.82,8a1.88,1.88,0,0,0,1.27,3.27h.15a1.89,1.89,0,0,0,1.22-.46l6.22-5.43,0,4.47a2.72,2.72,0,1,0,5.44,0l0-4.46,6.32,5.32a1.89,1.89,0,0,0,1.23.44h.14a1.88,1.88,0,0,0,1.86-1.89,1.83,1.83,0,0,0-.64-1.4l-9-7.83-.07-7.94,6.32,5.32a1.84,1.84,0,0,0,1.23.44h.14a1.87,1.87,0,0,0,1.86-1.89,1.83,1.83,0,0,0-.64-1.4l-9-7.83,0-5.44,4.45-2.26,4.43,2.51,2.5,11.63a1.88,1.88,0,0,0,3.47.53l.07-.13a1.93,1.93,0,0,0,.21-1.29l-1.59-8.11,6.91,3.92,2.5,11.63a1.88,1.88,0,0,0,3.47.53l.07-.13a1.93,1.93,0,0,0,.21-1.29l-1.59-8.1,3.89,2.2a2.72,2.72,0,1,0,2.68-4.73l-3.89-2.21,7.77-2.81a1.92,1.92,0,0,0,1-.84l.07-.13A1.87,1.87,0,0,0,1151.32,801.28Zm-36-5.16-2.71,1.38-2.73-1.34-.05-5.44,2.71-1.38,2.73,1.34Z" transform="translate(-244 -314.84)"/><path d="M1151.32,941.28a1.87,1.87,0,0,0-1.53-.15L1138.53,945l-6.91-3.92,7.77-2.81a1.92,1.92,0,0,0,1-.84l.07-.13a1.88,1.88,0,0,0-.71-2.56,1.9,1.9,0,0,0-1.53-.14L1127,938.42l-6.18-3.5,0-3.14,6.13-3.6,11.32,3.65a1.88,1.88,0,0,0,2.19-2.74l-.08-.13a1.84,1.84,0,0,0-1-.82l-7.82-2.68,6.85-4,11.32,3.65a1.81,1.81,0,0,0,1.52-.17,1.87,1.87,0,0,0,.67-2.57l-.08-.12a1.85,1.85,0,0,0-1-.83l-7.81-2.68,3.85-2.26a2.72,2.72,0,1,0-2.76-4.69l-3.85,2.26,1.45-8.13a1.85,1.85,0,0,0-.23-1.28l-.07-.13a1.88,1.88,0,0,0-2.57-.66,1.85,1.85,0,0,0-.89,1.25l-2.3,11.67-6.85,4,1.45-8.13a1.87,1.87,0,0,0-.23-1.29l-.07-.12a1.88,1.88,0,0,0-3.46.58l-2.3,11.67-4.39,2.59-4.48-2.19,0-5.44,8.82-8a1.85,1.85,0,0,0,.62-1.41,1.88,1.88,0,0,0-1.89-1.86h-.15a1.94,1.94,0,0,0-1.22.46l-6.22,5.43-.07-7.94,8.82-8a1.88,1.88,0,0,0-1.27-3.28h-.15a1.9,1.9,0,0,0-1.22.47l-6.22,5.43,0-4.47a2.72,2.72,0,1,0-5.44,0l0,4.47-6.32-5.32a1.84,1.84,0,0,0-1.23-.44h-.15a1.88,1.88,0,0,0-1.86,1.89,1.92,1.92,0,0,0,.64,1.4l9,7.83.07,7.94-6.32-5.33a2,2,0,0,0-1.23-.44H1102a1.89,1.89,0,0,0-1.86,1.9,1.94,1.94,0,0,0,.64,1.4l9,7.82,0,5.44-4.45,2.27-4.43-2.51-2.5-11.63a1.86,1.86,0,0,0-.91-1.24,1.88,1.88,0,0,0-2.56.71l-.07.13a1.9,1.9,0,0,0-.21,1.28l1.59,8.11-6.91-3.91-2.5-11.63a1.84,1.84,0,0,0-.91-1.24,1.87,1.87,0,0,0-2.56.71l-.07.13a1.84,1.84,0,0,0-.21,1.28l1.59,8.11-3.89-2.2a2.72,2.72,0,1,0-2.68,4.73l3.89,2.2-7.77,2.81a1.88,1.88,0,0,0-1,.84l-.07.13a1.88,1.88,0,0,0,.71,2.56,1.86,1.86,0,0,0,1.53.14l11.26-3.84,6.91,3.92-7.77,2.81a1.88,1.88,0,0,0-1,.84l-.07.13a1.88,1.88,0,0,0,2.24,2.7l11.25-3.84,6.19,3.5,0,3.14-6.13,3.6L1087,935a1.81,1.81,0,0,0-1.52.17,1.87,1.87,0,0,0-.67,2.57l.08.12a1.85,1.85,0,0,0,1,.83l7.81,2.68-6.85,4-11.32-3.66a1.88,1.88,0,0,0-2.19,2.74l.08.13a1.79,1.79,0,0,0,1,.82l7.81,2.68-3.85,2.27a2.72,2.72,0,0,0,2.76,4.69l3.85-2.27-1.45,8.13a1.87,1.87,0,0,0,.23,1.29l.07.12a1.88,1.88,0,0,0,3.46-.58l2.3-11.67,6.85-4L1095,954.2a1.84,1.84,0,0,0,.23,1.28l.07.13a1.88,1.88,0,0,0,3.46-.59l2.3-11.67,4.39-2.58L1110,943l0,5.44-8.82,8a1.84,1.84,0,0,0-.62,1.4,1.87,1.87,0,0,0,1.89,1.86h.15a1.83,1.83,0,0,0,1.22-.46l6.22-5.43.07,8-8.82,8a1.88,1.88,0,0,0,1.27,3.27h.15a1.89,1.89,0,0,0,1.22-.46l6.22-5.43,0,4.47a2.72,2.72,0,1,0,5.44,0l0-4.46,6.32,5.32a1.89,1.89,0,0,0,1.23.44h.14a1.88,1.88,0,0,0,1.86-1.89,1.83,1.83,0,0,0-.64-1.4l-9-7.83-.07-7.94,6.32,5.32a1.84,1.84,0,0,0,1.23.44h.14a1.87,1.87,0,0,0,1.86-1.89,1.83,1.83,0,0,0-.64-1.4l-9-7.83,0-5.44,4.45-2.26,4.43,2.51,2.5,11.63a1.88,1.88,0,0,0,3.47.53l.07-.13a1.93,1.93,0,0,0,.21-1.29l-1.59-8.11,6.91,3.92,2.5,11.63a1.88,1.88,0,0,0,3.47.53l.07-.13a1.93,1.93,0,0,0,.21-1.29l-1.59-8.1,3.89,2.2a2.72,2.72,0,1,0,2.68-4.73l-3.89-2.21,7.77-2.81a1.92,1.92,0,0,0,1-.84l.07-.13A1.87,1.87,0,0,0,1151.32,941.28Zm-36-5.16-2.71,1.38-2.73-1.34-.05-5.44,2.71-1.38,2.73,1.34Z" transform="translate(-244 -314.84)"/><path d="M751.32,1011.28a1.87,1.87,0,0,0-1.53-.15L738.53,1015l-6.91-3.92,7.77-2.81a1.92,1.92,0,0,0,1-.84l.07-.13a1.88,1.88,0,0,0-.71-2.56,1.9,1.9,0,0,0-1.53-.14L727,1008.42l-6.18-3.5,0-3.14,6.13-3.6,11.32,3.65a1.88,1.88,0,0,0,2.19-2.74l-.08-.13a1.84,1.84,0,0,0-1-.82l-7.82-2.68,6.85-4,11.32,3.65a1.81,1.81,0,0,0,1.52-.17,1.87,1.87,0,0,0,.67-2.57l-.08-.12a1.85,1.85,0,0,0-1-.83L743,988.71l3.85-2.26a2.72,2.72,0,1,0-2.76-4.69L740.19,984l1.45-8.13a1.85,1.85,0,0,0-.23-1.28l-.07-.13a1.88,1.88,0,0,0-2.57-.66,1.85,1.85,0,0,0-.89,1.25l-2.3,11.67-6.85,4,1.45-8.13a1.87,1.87,0,0,0-.23-1.29l-.07-.12a1.88,1.88,0,0,0-3.46.58l-2.3,11.67-4.39,2.59-4.48-2.19,0-5.44,8.82-8a1.85,1.85,0,0,0,.62-1.41,1.88,1.88,0,0,0-1.89-1.86h-.15a1.94,1.94,0,0,0-1.22.46l-6.22,5.43-.07-7.94,8.82-8a1.88,1.88,0,0,0-1.27-3.28h-.15a1.9,1.9,0,0,0-1.22.47l-6.22,5.43,0-4.47a2.72,2.72,0,1,0-5.44,0l0,4.47-6.32-5.32a1.84,1.84,0,0,0-1.23-.44h-.15a1.88,1.88,0,0,0-1.86,1.89,1.92,1.92,0,0,0,.64,1.4l9,7.83.07,7.94-6.32-5.33a2,2,0,0,0-1.23-.44H702a1.89,1.89,0,0,0-1.86,1.9,1.94,1.94,0,0,0,.64,1.4l9,7.82,0,5.44-4.45,2.27-4.43-2.51-2.5-11.63a1.86,1.86,0,0,0-.91-1.24,1.88,1.88,0,0,0-2.56.71l-.07.13a1.9,1.9,0,0,0-.21,1.28l1.59,8.11-6.91-3.91-2.5-11.63a1.84,1.84,0,0,0-.91-1.24,1.87,1.87,0,0,0-2.56.71l-.07.13a1.84,1.84,0,0,0-.21,1.28l1.59,8.11-3.89-2.2a2.72,2.72,0,1,0-2.68,4.73l3.89,2.2L674.25,992a1.88,1.88,0,0,0-1,.84l-.07.13a1.88,1.88,0,0,0,.71,2.56,1.86,1.86,0,0,0,1.53.14l11.26-3.84,6.91,3.92-7.77,2.81a1.88,1.88,0,0,0-1,.84l-.07.13a1.88,1.88,0,0,0,2.24,2.7l11.25-3.84,6.19,3.5,0,3.14-6.13,3.6L687,1005a1.81,1.81,0,0,0-1.52.17,1.87,1.87,0,0,0-.67,2.57l.08.12a1.85,1.85,0,0,0,1,.83l7.81,2.68-6.85,4-11.32-3.66a1.88,1.88,0,0,0-2.19,2.74l.08.13a1.79,1.79,0,0,0,1,.82l7.81,2.68-3.85,2.27a2.72,2.72,0,0,0,2.76,4.69l3.85-2.27-1.45,8.13a1.87,1.87,0,0,0,.23,1.29l.07.12a1.88,1.88,0,0,0,3.46-.58l2.3-11.67,6.85-4L695,1024.2a1.84,1.84,0,0,0,.23,1.28l.07.13a1.88,1.88,0,0,0,3.46-.59l2.3-11.67,4.39-2.58L710,1013l0,5.44-8.82,8a1.84,1.84,0,0,0-.62,1.4,1.87,1.87,0,0,0,1.89,1.86h.15a1.83,1.83,0,0,0,1.22-.46l6.22-5.43.07,8-8.82,8a1.88,1.88,0,0,0,1.27,3.27h.15a1.89,1.89,0,0,0,1.22-.46l6.22-5.43,0,4.47a2.72,2.72,0,1,0,5.44,0l0-4.46,6.32,5.32a1.89,1.89,0,0,0,1.23.44h.14a1.88,1.88,0,0,0,1.86-1.89,1.83,1.83,0,0,0-.64-1.4l-9-7.83-.07-7.94,6.32,5.32a1.84,1.84,0,0,0,1.23.44h.14a1.87,1.87,0,0,0,1.86-1.89,1.83,1.83,0,0,0-.64-1.4l-8.95-7.83-.05-5.44,4.45-2.26,4.43,2.51,2.5,11.63a1.88,1.88,0,0,0,3.47.53l.07-.13a1.93,1.93,0,0,0,.21-1.29l-1.59-8.11,6.91,3.92,2.5,11.63a1.88,1.88,0,0,0,3.47.53l.07-.13a1.93,1.93,0,0,0,.21-1.29l-1.59-8.1,3.89,2.2a2.72,2.72,0,1,0,2.68-4.73l-3.89-2.21,7.77-2.81a1.92,1.92,0,0,0,1-.84l.07-.13A1.87,1.87,0,0,0,751.32,1011.28Zm-36-5.16-2.71,1.38-2.73-1.34,0-5.44,2.71-1.38,2.73,1.34Z" transform="translate(-244 -314.84)"/></g></svg>