<svg height="480pt" viewBox="-7 0 480 480" width="480pt" xmlns="http://www.w3.org/2000/svg"><path d="m258.945312 96h16v16h-16zm0 0"/><path d="m210.945312 96h16v16h-16zm0 0"/><path d="m51.554688 319.265625c26.289062 0 66.289062-4.839844 127.390624-17.800781v18.535156h-48c-13.253906 0-24 10.746094-24 24v32c0 13.253906 10.746094 24 24 24h224c13.257813 0 24-10.746094 24-24v-32c0-13.253906-10.742187-24-24-24h-48v-85.753906l54.058594 13.515625c2.191406.550781 4.515625.152343 6.398438-1.105469l46.679687-31.121094 38.464844-7.695312c3.726563-.761719 6.402344-4.039063 6.398437-7.839844v-32c0-4.417969-3.582031-8-8-8h-40c-1.621093.230469-3.191406.734375-4.648437 1.488281l-52.863281 37.757813-46.488282-13.277344v-105.96875h8c4.417969 0 8-3.582031 8-8v-8.945312c43.386719-5.117188 104.699219-4.757813 111.65625 12.167968 1.695313 4.128906 2.9375 20.800782-52.453124 62.402344l9.597656 12.800781c47.488281-35.617187 65.808594-61.441406 57.648437-81.265625-13.144531-31.984375-94.792969-25.878906-126.449219-22.230468v-38.929688c0-4.417969-3.582031-8-8-8h-144c-4.417968 0-8 3.582031-8 8v64c0 4.417969 3.582032 8 8 8h8v105.96875l-46.488281 13.277344-52.863281-37.757813c-1.453125-.753906-3.023438-1.257812-4.648438-1.488281h-40c-4.417968 0-8 3.582031-8 8v32c0 3.800781 2.675782 7.078125 6.402344 7.839844l36.511719 7.304687c-26.785156 18.519531-79.625 59.253907-68.289063 85.960938 4 9.414062 14.59375 18.167969 49.984376 18.160156zm391.390624-125.824219-24 4.796875v-22.238281h24zm-248 104.542969c3.203126-.710937 6.402344-1.425781 9.777344-2.183594l-3.550781-15.601562c-2.136719.488281-4.136719.921875-6.226563 1.386719v-89.585938h10.585938l13.414062 33.535156v94.464844h-24zm0-137.984375h24c4.417969 0 8-3.582031 8-8v-8h32v8c0 4.417969 3.582032 8 8 8h24v16h-96zm56 64v96h-16v-96c0-1.019531-.191406-2.027344-.566406-2.976562l-11.617187-29.023438h40.367187l-11.613281 29.023438c-.375.949218-.570313 1.957031-.570313 2.976562zm-120 160c-4.417968 0-8-3.582031-8-8v-32c0-4.417969 3.582032-8 8-8h30.464844l120 48zm232-40v32c0 4.417969-3.582031 8-8 8h-30.453124l-120-48h150.453124c4.417969 0 8 3.582031 8 8zm-96-24v-94.464844l13.417969-33.535156h10.582031v128zm92.648438-105.488281 43.351562-30.96875v20.175781l-41.496093 27.65625-54.503907-13.621094v-15.144531l45.800782 13.078125c2.34375.671875 4.863281.238281 6.847656-1.175781zm-180.648438-198.511719h128v48h-37.75l5.511719-22.054688c.820313-3.28125-.507812-6.722656-3.320312-8.601562l-24-16c-2.6875-1.792969-6.191407-1.792969-8.878907 0l-24 16c-2.8125 1.878906-4.144531 5.320312-3.320312 8.601562l5.511719 22.054688h-37.753907zm49.128907 27.527344 14.871093-9.925782 14.875 9.910157-5.121093 20.488281h-19.503907zm62.871093 36.472656v64h-16v-8c0-4.417969-3.582031-8-8-8h-48c-4.417968 0-8 3.582031-8 8v8h-16v-64zm-208 103.542969 43.351563 30.96875c1.984375 1.414062 4.507813 1.847656 6.851563 1.175781l45.796874-13.078125v15.144531l-54.503906 13.597656-41.496094-27.632812zm-40-7.542969h24v22.238281l-24-4.796875zm42.007813 48.289062 33.554687 22.398438c1.878907 1.257812 4.207032 1.65625 6.398438 1.105469l54.039062-13.546875v50.84375c-145.117187 31.023437-160.957031 13.734375-162.648437 9.757812-4.980469-11.726562 31.089844-45.519531 68.65625-70.558594zm0 0"/><path d="m74.945312 120c13.257813 0 24 10.746094 24 24 0 4.417969 3.582032 8 8 8 4.417969 0 8-3.582031 8-8 0-13.253906 10.746094-24 24-24 4.417969 0 8-3.582031 8-8s-3.582031-8-8-8c-13.253906 0-24-10.746094-24-24 0-4.417969-3.582031-8-8-8-4.417968 0-8 3.582031-8 8 0 13.253906-10.742187 24-24 24-4.417968 0-8 3.582031-8 8s3.582032 8 8 8zm32-16.246094c2.332032 3.136719 5.109376 5.914063 8.25 8.246094-3.140624 2.332031-5.917968 5.109375-8.25 8.246094-2.328124-3.136719-5.109374-5.914063-8.246093-8.246094 3.136719-2.332031 5.917969-5.109375 8.246093-8.246094zm0 0"/><path d="m434.945312 248c0-4.417969-3.582031-8-8-8-4.417968 0-8 3.582031-8 8 0 13.253906-10.742187 24-24 24-4.417968 0-8 3.582031-8 8s3.582032 8 8 8c13.257813 0 24 10.746094 24 24 0 4.417969 3.582032 8 8 8 4.417969 0 8-3.582031 8-8 0-13.253906 10.746094-24 24-24 4.417969 0 8-3.582031 8-8s-3.582031-8-8-8c-13.253906 0-24-10.746094-24-24zm-8 40.246094c-2.328124-3.136719-5.109374-5.914063-8.246093-8.246094 3.136719-2.332031 5.917969-5.109375 8.246093-8.246094 2.332032 3.136719 5.109376 5.914063 8.25 8.246094-3.140624 2.332031-5.917968 5.109375-8.25 8.246094zm0 0"/><path d="m98.945312 32h16v16h-16zm0 0"/><path d="m26.945312 112h16v16h-16zm0 0"/><path d="m34.945312 72c13.257813 0 24-10.746094 24-24s-10.742187-24-24-24c-13.253906 0-24 10.746094-24 24s10.746094 24 24 24zm0-32c4.417969 0 8 3.582031 8 8s-3.582031 8-8 8c-4.417968 0-8-3.582031-8-8s3.582032-8 8-8zm0 0"/><path d="m378.945312 104c0-13.253906-10.742187-24-24-24-13.253906 0-24 10.746094-24 24s10.746094 24 24 24c13.257813 0 24-10.746094 24-24zm-32 0c0-4.417969 3.582032-8 8-8 4.417969 0 8 3.582031 8 8s-3.582031 8-8 8c-4.417968 0-8-3.582031-8-8zm0 0"/><path d="m330.945312 152h16v16h-16zm0 0"/><path d="m434.945312 24h16v16h-16zm0 0"/><path d="m330.945312 280h16v16h-16zm0 0"/><path d="m74.945312 264h16v16h-16zm0 0"/><path d="m50.945312 480h384c3.238282 0 6.152344-1.949219 7.390626-4.9375 1.238281-2.988281.554687-6.429688-1.734376-8.71875l-32-32c-1.5-1.5-3.535156-2.34375-5.65625-2.34375h-320c-2.121093 0-4.15625.84375-5.65625 2.34375l-32 32c-2.285156 2.289062-2.96875 5.730469-1.730468 8.71875 1.238281 2.988281 4.152344 4.9375 7.386718 4.9375zm35.3125-32h313.375l16 16h-345.375zm0 0"/></svg>