<svg xmlns="http://www.w3.org/2000/svg" viewBox="0 0 1261.3 1094.08"><defs><style>.cls-1{fill:none;stroke:#28df00;stroke-linecap:round;stroke-linejoin:round;stroke-width:113px;}</style></defs><title>mas fuerte que hombre adulto</title><g id="Capa_4" data-name="Capa 4"><polyline class="cls-1" points="56.5 519.58 510.5 767.58 64.5 1037.58"/></g><g id="Capa_3" data-name="Capa 3"><g id="outline"><path d="M955.8,784.62H991v35.2H955.8Z" transform="translate(-46.5 -45.42)"/><path d="M674.2,784.62h35.2v35.2H674.2Z" transform="translate(-46.5 -45.42)"/><path d="M772.52,925.42H709.4v35.2h70.4a17.61,17.61,0,0,0,12.45-5.16l35.2-35.2-24.89-24.88Z" transform="translate(-46.5 -45.42)"/><path d="M885.4,960.62h70.4v-35.2H892.69l-30-30-24.89,24.88,35.2,35.2A17.61,17.61,0,0,0,885.4,960.62Z" transform="translate(-46.5 -45.42)"/><path d="M772.52,995.82H709.4V1031h70.4a17.61,17.61,0,0,0,12.45-5.16l35.2-35.2-24.89-24.88Z" transform="translate(-46.5 -45.42)"/><path d="M885.4,1031h70.4v-35.2H892.69l-30-30-24.89,24.88,35.2,35.2A17.61,17.61,0,0,0,885.4,1031Z" transform="translate(-46.5 -45.42)"/><path d="M727,327h35.2v35.2H727Z" transform="translate(-46.5 -45.42)"/><path d="M903,327h35.2v35.2H903Z" transform="translate(-46.5 -45.42)"/><path d="M815,362.22h35.2v70.4H815Z" transform="translate(-46.5 -45.42)"/><path d="M1008.6,133.42a88.1,88.1,0,0,0-88-88H885.4A17.6,17.6,0,0,0,867.8,63v52.8A35.19,35.19,0,0,1,832.6,151H727a70.4,70.4,0,0,0-70.4,70.4V328.78a88,88,0,0,0,0,172.48V608.62a17.6,17.6,0,0,0,17.6,17.6H991a17.6,17.6,0,0,0,17.6-17.6V501.26a88,88,0,0,0,0-172.48Zm-352,331.39a52.8,52.8,0,0,1,0-99.58ZM973.4,591H691.8V291.82H973.4Zm0-334.4H691.8v-35.2a35.2,35.2,0,0,1,35.2-35.2H832.6a70.39,70.39,0,0,0,70.4-70.4V80.62h17.6a52.79,52.79,0,0,1,52.8,52.8ZM1043.8,415a52.9,52.9,0,0,1-35.2,49.79V365.23A52.89,52.89,0,0,1,1043.8,415Z" transform="translate(-46.5 -45.42)"/><path d="M832.6,555.82a88.1,88.1,0,0,0,88-88H885.4a52.8,52.8,0,1,1-105.6,0H744.6A88.11,88.11,0,0,0,832.6,555.82Z" transform="translate(-46.5 -45.42)"/><path d="M621.4,1101.42h422.4a17.6,17.6,0,0,0,17.6-17.6V802.22H1255a17.6,17.6,0,0,0,17.6-17.6V576.8l34-84.83a17.6,17.6,0,0,0-6.59-21.12l-105.6-70.4a17.59,17.59,0,0,0-22.21,2.2l-52.8,52.8a17.61,17.61,0,0,0-5.16,12.37v52.8a17.78,17.78,0,0,0,.9,5.56l16.7,50.09v85.15H533.4V576.27l16.71-50.09a17.49,17.49,0,0,0,.89-5.56v-52.8a17.58,17.58,0,0,0-5.15-12.44l-52.8-52.8a17.59,17.59,0,0,0-22.21-2.2l-105.6,70.4a17.6,17.6,0,0,0-6.59,21.12l34,84.9V784.62a17.6,17.6,0,0,0,17.6,17.6H603.8v281.6a17.6,17.6,0,0,0,17.6,17.6ZM427.8,767V573.42a17.93,17.93,0,0,0-1.24-6.55l-29.92-74.73,81.71-54.56,30.17,30.24L477.08,499.2l-23.86-11.93-15.68,31.59,35.2,17.6a17.81,17.81,0,0,0,7.86,1.76,17.61,17.61,0,0,0,12.45-5.16l22.75-22.75v7.46l-16.7,50.09a17.78,17.78,0,0,0-.9,5.56V679a17.6,17.6,0,0,0,17.6,17.6h633.6A17.6,17.6,0,0,0,1167,679V573.42a17.49,17.49,0,0,0-.89-5.56l-16.71-50.09v-7.46l22.76,22.75a17.61,17.61,0,0,0,12.44,5.16,17.88,17.88,0,0,0,7.87-1.85l35.2-17.6-15.73-31.5-23.87,11.93-31.38-31.38,30.15-30.15,81.72,54.56L1238.64,567a17.87,17.87,0,0,0-1.24,6.46V767H1043.8a17.6,17.6,0,0,0-17.6,17.6V855H910.29l-30-30-24.89,24.88,35.2,35.2A17.61,17.61,0,0,0,903,890.22h123.2v176H639v-176H762.2a17.61,17.61,0,0,0,12.45-5.16l35.2-35.2L785,825l-30,30H639v-70.4A17.6,17.6,0,0,0,621.4,767Z" transform="translate(-46.5 -45.42)"/></g></g></svg>