<svg xmlns="http://www.w3.org/2000/svg" viewBox="0 0 1221.37 961.69"><defs><style>.cls-1{fill:none;stroke:#28df00;stroke-linecap:round;stroke-linejoin:round;stroke-width:113px;}</style></defs><title>mas fuerte que un dinosaurio</title><g id="Capa_3" data-name="Capa 3"><path d="M1057.32,313.4a23.93,23.93,0,1,0-23.92-23.93A23.92,23.92,0,0,0,1057.32,313.4Z" transform="translate(-46.5 -177.81)"/><path d="M1248.27,1052.8h-330a113.79,113.79,0,0,0-76.05-77.18,141.89,141.89,0,0,1-27.45-70.06A227.93,227.93,0,0,0,921.9,768.92c22.4-5.51,67.08-20.72,88.78-57.34a42.78,42.78,0,0,1,10.91,12,19.63,19.63,0,0,0,27,5.78,37,37,0,0,1,41.59,2.34,19.59,19.59,0,0,0,31.44-10.94A86.33,86.33,0,0,0,1079,625.23a216.86,216.86,0,0,0,27.71-105.6c42.73-9.27,134.3-34.87,145.22-85.81a288.79,288.79,0,0,0,9.8-65.41,19.62,19.62,0,0,0-22.22-16.63,18.75,18.75,0,0,0-3,.66,531.47,531.47,0,0,1-104.94,19.17q4-3.36,8.1-7.16c38-35.15,67.7-46.89,106-41.95a19.58,19.58,0,0,0,22-16.88,19.86,19.86,0,0,0,.17-2.55c0-3.7-.76-90.79-65.64-116.93-41.36-16.68-62.86-4.75-80.13,4.84a52,52,0,0,1-25.56,8.87c-3.48.08-7.62,0-12.21,0-45.61-.45-152.23-1.44-169.22,108.19-1.5,9.68-2.81,18.9-4.08,27.68-12,83.54-16.43,114.81-111.56,136.37C676.17,500,566.34,542.17,470.33,775.87a93.26,93.26,0,0,1-85.48,62.72,117.05,117.05,0,0,1-106-58.67c-15.39-30.64-9.23-64.61,17.83-98.26a19.6,19.6,0,0,0-28.83-26.44c-2.91,2.8-71.44,69.44-67.2,152.72,2.36,46.83,26.83,88.74,72.73,124.57a221.76,221.76,0,0,0,139.77,49.06c73,0,143.43-33.44,198.24-69.44a86.19,86.19,0,0,1-8.85,39,19.64,19.64,0,0,0,.29,17.67,214.72,214.72,0,0,1,21.92,84H217.47a19.6,19.6,0,1,0,0,39.2h1030.8a19.6,19.6,0,0,0,0-39.2h0ZM297.48,901.6C261,873.14,241.61,841,239.8,806.16a110.2,110.2,0,0,1,.4-16.65c1.2,2.89,2.43,5.6,3.65,8a155.87,155.87,0,0,0,142.52,80.24,132.52,132.52,0,0,0,120.26-87c89-216.65,185.12-254.06,301.5-280.45,121.46-27.52,129.52-83.82,141.72-169,1.23-8.63,2.53-17.71,4-27.23,10.88-70.23,72.8-75.58,130.11-75,5,0,9.55.08,13.44,0a88.5,88.5,0,0,0,43.77-13.77c14-7.76,22.4-12.46,46.45-2.77,25.45,10.25,35.14,39.48,38.83,59.75-39.59.84-74.63,17.62-113.31,53.43-33.53,31.06-53.91,30-53.35,30.13a19.6,19.6,0,0,0-9,38.08c54.41,15.92,128.18,3,168.35-6.4-1.32,7.28-3.12,16.49-5.6,28.08-5.19,24.25-79.51,49.76-131.17,58.86a19.62,19.62,0,0,0-16,21.95c6.08,44.49-13.58,85.86-24.83,105.28A177.64,177.64,0,0,0,985,602.3a19.6,19.6,0,1,0,2.82,39.1l.73-.07a196.77,196.77,0,0,1,55,12c.19.07.4,0,.59.1a4.61,4.61,0,0,0,.87.35,48.06,48.06,0,0,1,37.26,31.9,77,77,0,0,0-38.37,2.85,55.79,55.79,0,0,0-47-19.46,19.62,19.62,0,0,0-15.56,13.17c-8,24-33.85,37.21-53.69,44.06a204,204,0,0,0-24.94-101.06,19.64,19.64,0,0,0-34.25,19.22h0a169.81,169.81,0,0,1,18.23,103.74A187.25,187.25,0,0,1,786.63,876a19.59,19.59,0,0,0-11.87,18.53,176.5,176.5,0,0,0,42.06,111.8,19.6,19.6,0,0,0,9.09,5.38,75.56,75.56,0,0,1,50.4,41.11H777c-9.54-71.38-50-136.38-66.69-160.7a155,155,0,0,0,13.21-79.52A139.31,139.31,0,0,0,669.17,667a19.6,19.6,0,0,0-23.81,31.14,99.31,99.31,0,0,1,40.59,103C658.42,829.23,456,1025.41,297.48,901.64Zm344.19,57.76a124,124,0,0,0,5.93-72.94c12.39-9.45,23.52-18.59,33-26.79a129.83,129.83,0,0,1-10.25,25.07A19.58,19.58,0,0,0,672,905.85c.58.77,53.26,70.66,65.35,146.9H663.84a249.47,249.47,0,0,0-22.17-93.35Z" transform="translate(-46.5 -177.81)"/></g><g id="Capa_4" data-name="Capa 4"><polyline class="cls-1" points="56.5 387.19 510.5 635.19 64.5 905.19"/></g></svg>